SplineFontDB: 3.2
FontName: ElsaTerm-Bold
FullName: ElsaTerm Bold
FamilyName: ElsaTerm
Weight: Bold
Copyright: Copyright 2020 The JetBrains Mono NL Project Authors (https://github.com/JetBrains/JetBrainsMonoNL). OFL. 
Version: 2.220; ttfautohint (v1.8.3)
ItalicAngle: 0
UnderlinePosition: -180
UnderlineWidth: 50
Ascent: 800
Descent: 200
InvalidEm: 0
sfntRevision: 0x00023852
LayerCount: 2
Layer: 0 1 "Back" 1
Layer: 1 1 "Fore" 0
XUID: [1021 741 -376169843 12598]
StyleMap: 0x0040
FSType: 0
OS2Version: 4
OS2_WeightWidthSlopeOnly: 0
OS2_UseTypoMetrics: 1
CreationTime: 1608560709
ModificationTime: 1608843918
PfmFamily: 17
TTFWeight: 700
TTFWidth: 5
LineGap: 0
VLineGap: 0
Panose: 2 0 0 9 0 0 0 0 0 0
OS2TypoAscent: 1020
OS2TypoAOffset: 0
OS2TypoDescent: -300
OS2TypoDOffset: 0
OS2TypoLinegap: 0
OS2WinAscent: 1020
OS2WinAOffset: 0
OS2WinDescent: 300
OS2WinDOffset: 0
HheadAscent: 1020
HheadAOffset: 0
HheadDescent: -300
HheadDOffset: 0
OS2SubXSize: 650
OS2SubYSize: 600
OS2SubXOff: 0
OS2SubYOff: 75
OS2SupXSize: 650
OS2SupYSize: 600
OS2SupXOff: 0
OS2SupYOff: 350
OS2StrikeYSize: 50
OS2StrikeYPos: 320
OS2CapHeight: 730
OS2XHeight: 550
OS2Vendor: 'JB  '
OS2CodePages: 2000019f.dfd70000
OS2UnicodeRanges: a00002ff.1000f8eb.00000008.00000000
MarkAttachClasses: 1
DEI: 91125
TtTable: prep
SVTCA[y-axis]
MPPEM
PUSHW_1
 200
GT
IF
PUSHB_2
 1
 1
INSTCTRL
EIF
PUSHB_1
 1
PUSHW_2
 2048
 2048
MUL
WCVTF
PUSHB_2
 0
 7
WS
PUSHB_7
 0
 0
 65
 49
 33
 5
 0
LOOPCALL
PUSHB_2
 0
 7
WS
NPUSHB
 12
 78
 4
 70
 4
 54
 8
 38
 8
 24
 7
 5
 10
LOOPCALL
PUSHB_2
 0
 7
WS
NPUSHB
 12
 82
 2
 74
 2
 62
 6
 46
 6
 31
 5
 5
 10
LOOPCALL
PUSHB_2
 0
 12
WS
PUSHW_7
 5056
 4544
 3520
 2496
 1600
 5
 11
LOOPCALL
PUSHB_2
 0
 17
WS
PUSHW_7
 64
 64
 64
 64
 64
 5
 11
LOOPCALL
PUSHW_2
 3
 0
WCVTP
PUSHB_2
 36
 1
GETINFO
LTEQ
IF
PUSHB_1
 64
GETINFO
IF
PUSHW_2
 3
 100
WCVTP
PUSHB_2
 40
 1
GETINFO
LTEQ
IF
PUSHW_1
 2048
GETINFO
IF
PUSHW_2
 3
 0
WCVTP
EIF
ELSE
PUSHB_2
 39
 1
GETINFO
LTEQ
IF
PUSHW_3
 2176
 1
 1088
GETINFO
MUL
EQ
IF

StartChar: A
Encoding: 65 65 0
Width: 600
GlyphClass: 2
Flags: W
LayerCount: 2
Fore
SplineSet
25 0 m 1,0,-1
 204 730 l 1,1,-1
 394 730 l 1,2,-1
 575 0 l 1,3,-1
 422 0 l 1,4,-1
 387 165 l 1,5,-1
 213 165 l 1,6,-1
 178 0 l 1,7,-1
 25 0 l 1,0,-1
238 285 m 1,8,-1
 361 285 l 1,9,-1
 326 461 l 2,10,11
 319 499 319 499 311.5 536.5 c 128,-1,12
 304 574 304 574 300 595 c 1,13,14
 296 574 296 574 289.5 537 c 128,-1,15
 283 500 283 500 275 462 c 2,16,-1
 238 285 l 1,8,-1
EndSplineSet
EndChar

StartChar: B
Encoding: 66 66 2
Width: 600
GlyphClass: 2
Flags: W
LayerCount: 2
Fore
SplineSet
66 0 m 1,0,-1
 66 730 l 1,1,-1
 301 730 l 2,2,3
 412 730 412 730 478 679.5 c 128,-1,4
 544 629 544 629 544 543 c 0,5,6
 544 495 544 495 521.5 459 c 128,-1,7
 499 423 499 423 461.5 403 c 128,-1,8
 424 383 424 383 380 383 c 1,9,-1
 380 380 l 1,10,11
 429 381 429 381 469.5 362 c 128,-1,12
 510 343 510 343 535 305 c 128,-1,13
 560 267 560 267 560 211 c 0,14,15
 560 147 560 147 529.5 99.5 c 128,-1,16
 499 52 499 52 443 26 c 128,-1,17
 387 0 387 0 310 0 c 2,18,-1
 66 0 l 1,0,-1
211 436 m 1,19,-1
 299 436 l 2,20,21
 343 436 343 436 368 459.5 c 128,-1,22
 393 483 393 483 393 523 c 0,23,24
 393 564 393 564 368 586.5 c 128,-1,25
 343 609 343 609 299 609 c 2,26,-1
 211 609 l 1,27,-1
 211 436 l 1,19,-1
211 121 m 1,28,-1
 304 121 l 2,29,30
 353 121 353 121 381 147 c 128,-1,31
 409 173 409 173 409 219 c 256,32,33
 409 265 409 265 381 291.5 c 128,-1,34
 353 318 353 318 304 318 c 2,35,-1
 211 318 l 1,36,-1
 211 121 l 1,28,-1
EndSplineSet
EndChar

StartChar: C
Encoding: 67 67 3
Width: 600
GlyphClass: 2
Flags: W
LayerCount: 2
Fore
SplineSet
304 -10 m 0,0,1
 231 -10 231 -10 176 17.5 c 128,-1,2
 121 45 121 45 90.5 94.5 c 128,-1,3
 60 144 60 144 60 210 c 2,4,-1
 60 520 l 2,5,6
 60 587 60 587 90.5 636 c 128,-1,7
 121 685 121 685 176 712.5 c 128,-1,8
 231 740 231 740 304 740 c 0,9,10
 378 740 378 740 432.5 712.5 c 128,-1,11
 487 685 487 685 517.5 636 c 128,-1,12
 548 587 548 587 548 520 c 1,13,-1
 398 520 l 1,14,15
 398 564 398 564 373.5 587 c 128,-1,16
 349 610 349 610 304 610 c 256,17,18
 259 610 259 610 234.5 587 c 128,-1,19
 210 564 210 564 210 520 c 2,20,-1
 210 210 l 2,21,22
 210 167 210 167 234.5 143.5 c 128,-1,23
 259 120 259 120 304 120 c 256,24,25
 349 120 349 120 373.5 143.5 c 128,-1,26
 398 167 398 167 398 210 c 1,27,-1
 548 210 l 1,28,29
 548 144 548 144 517.5 94.5 c 128,-1,30
 487 45 487 45 432.5 17.5 c 128,-1,31
 378 -10 378 -10 304 -10 c 0,0,1
EndSplineSet
EndChar

StartChar: D
Encoding: 68 68 4
Width: 600
GlyphClass: 2
Flags: W
LayerCount: 2
Fore
SplineSet
63 0 m 1,0,-1
 63 730 l 1,1,-1
 300 730 l 2,2,3
 376 730 376 730 432.5 701 c 128,-1,4
 489 672 489 672 520.5 619.5 c 128,-1,5
 552 567 552 567 552 496 c 2,6,-1
 552 235 l 2,7,8
 552 165 552 165 520.5 112 c 128,-1,9
 489 59 489 59 432.5 29.5 c 128,-1,10
 376 0 376 0 300 0 c 2,11,-1
 63 0 l 1,0,-1
213 140 m 1,12,-1
 300 140 l 2,13,14
 346 140 346 140 374 166 c 128,-1,15
 402 192 402 192 402 235 c 2,16,-1
 402 496 l 2,17,18
 402 538 402 538 374 564 c 128,-1,19
 346 590 346 590 300 590 c 2,20,-1
 213 590 l 1,21,-1
 213 140 l 1,12,-1
EndSplineSet
EndChar

StartChar: E
Encoding: 69 69 5
Width: 600
GlyphClass: 2
Flags: W
LayerCount: 2
Fore
SplineSet
80 0 m 1,0,-1
 80 730 l 1,1,-1
 530 730 l 1,2,-1
 530 602 l 1,3,-1
 227 602 l 1,4,-1
 227 438 l 1,5,-1
 495 438 l 1,6,-1
 495 310 l 1,7,-1
 227 310 l 1,8,-1
 227 128 l 1,9,-1
 530 128 l 1,10,-1
 530 0 l 1,11,-1
 80 0 l 1,0,-1
EndSplineSet
EndChar

StartChar: F
Encoding: 70 70 7
Width: 600
GlyphClass: 2
Flags: W
LayerCount: 2
Fore
SplineSet
70 0 m 1,0,-1
 70 730 l 1,1,-1
 540 730 l 1,2,-1
 540 590 l 1,3,-1
 218 590 l 1,4,-1
 218 428 l 1,5,-1
 514 428 l 1,6,-1
 514 288 l 1,7,-1
 220 288 l 1,8,-1
 220 0 l 1,9,-1
 70 0 l 1,0,-1
EndSplineSet
EndChar

StartChar: G
Encoding: 71 71 8
Width: 600
GlyphClass: 2
Flags: W
LayerCount: 2
Fore
SplineSet
304 -10 m 0,0,1
 231 -10 231 -10 176 17.5 c 128,-1,2
 121 45 121 45 90.5 94.5 c 128,-1,3
 60 144 60 144 60 210 c 2,4,-1
 60 520 l 2,5,6
 60 587 60 587 90.5 636 c 128,-1,7
 121 685 121 685 176 712.5 c 128,-1,8
 231 740 231 740 304 740 c 0,9,10
 378 740 378 740 432.5 712.5 c 128,-1,11
 487 685 487 685 517.5 636 c 128,-1,12
 548 587 548 587 548 520 c 1,13,-1
 398 520 l 1,14,15
 398 564 398 564 373.5 587 c 128,-1,16
 349 610 349 610 304 610 c 256,17,18
 259 610 259 610 234.5 587 c 128,-1,19
 210 564 210 564 210 520 c 2,20,-1
 210 210 l 2,21,22
 210 167 210 167 234.5 143.5 c 128,-1,23
 259 120 259 120 304 120 c 256,24,25
 349 120 349 120 373.5 143.5 c 128,-1,26
 398 167 398 167 398 210 c 2,27,-1
 398 273 l 1,28,-1
 290 273 l 1,29,-1
 290 400 l 1,30,-1
 548 400 l 1,31,-1
 548 210 l 2,32,33
 548 144 548 144 517.5 94.5 c 128,-1,34
 487 45 487 45 432.5 17.5 c 128,-1,35
 378 -10 378 -10 304 -10 c 0,0,1
EndSplineSet
EndChar

StartChar: H
Encoding: 72 72 9
Width: 600
GlyphClass: 2
Flags: W
LayerCount: 2
Fore
SplineSet
66 0 m 1,0,-1
 66 730 l 1,1,-1
 216 730 l 1,2,-1
 216 450 l 1,3,-1
 384 450 l 1,4,-1
 384 730 l 1,5,-1
 534 730 l 1,6,-1
 534 0 l 1,7,-1
 384 0 l 1,8,-1
 384 310 l 1,9,-1
 216 310 l 1,10,-1
 216 0 l 1,11,-1
 66 0 l 1,0,-1
EndSplineSet
EndChar

StartChar: I
Encoding: 73 73 10
Width: 600
GlyphClass: 2
Flags: W
LayerCount: 2
Fore
SplineSet
80 0 m 1,0,-1
 80 130 l 1,1,-1
 225 130 l 1,2,-1
 225 600 l 1,3,-1
 80 600 l 1,4,-1
 80 730 l 1,5,-1
 520 730 l 1,6,-1
 520 600 l 1,7,-1
 375 600 l 1,8,-1
 375 130 l 1,9,-1
 520 130 l 1,10,-1
 520 0 l 1,11,-1
 80 0 l 1,0,-1
EndSplineSet
EndChar

StartChar: J
Encoding: 74 74 12
Width: 600
GlyphClass: 2
Flags: W
LayerCount: 2
Fore
SplineSet
270 -11 m 0,0,1
 155 -11 155 -11 87.5 51.5 c 128,-1,2
 20 114 20 114 20 220 c 1,3,-1
 170 220 l 1,4,5
 170 174 170 174 197 146.5 c 128,-1,6
 224 119 224 119 270 119 c 256,7,8
 316 119 316 119 343 145.5 c 128,-1,9
 370 172 370 172 370 218 c 2,10,-1
 370 590 l 1,11,-1
 165 590 l 1,12,-1
 165 730 l 1,13,-1
 520 730 l 1,14,-1
 520 218 l 2,15,16
 520 112 520 112 453 50.5 c 128,-1,17
 386 -11 386 -11 270 -11 c 0,0,1
EndSplineSet
EndChar

StartChar: K
Encoding: 75 75 13
Width: 600
GlyphClass: 2
Flags: W
LayerCount: 2
Fore
SplineSet
65 0 m 1,0,-1
 65 730 l 1,1,-1
 215 730 l 1,2,-1
 215 447 l 1,3,-1
 286 447 l 1,4,-1
 406 730 l 1,5,-1
 569 730 l 1,6,-1
 419 381 l 1,7,-1
 575 0 l 1,8,-1
 410 0 l 1,9,-1
 286 309 l 1,10,-1
 215 309 l 1,11,-1
 215 0 l 1,12,-1
 65 0 l 1,0,-1
EndSplineSet
EndChar

StartChar: L
Encoding: 76 76 14
Width: 600
GlyphClass: 2
Flags: W
LayerCount: 2
Fore
SplineSet
95 0 m 1,0,-1
 95 730 l 1,1,-1
 245 730 l 1,2,-1
 245 140 l 1,3,-1
 540 140 l 1,4,-1
 540 0 l 1,5,-1
 95 0 l 1,0,-1
EndSplineSet
EndChar

StartChar: M
Encoding: 77 77 15
Width: 600
GlyphClass: 2
Flags: W
LayerCount: 2
Fore
SplineSet
42 0 m 1,0,-1
 42 730 l 1,1,-1
 211 730 l 1,2,-1
 278 500 l 2,3,4
 289 464 289 464 294.5 437 c 128,-1,5
 300 410 300 410 301 399 c 1,6,7
 302 410 302 410 307.5 437 c 128,-1,8
 313 464 313 464 323 500 c 2,9,-1
 389 730 l 1,10,-1
 558 730 l 1,11,-1
 558 0 l 1,12,-1
 421 0 l 1,13,-1
 421 200 l 2,14,15
 421 255 421 255 423.5 315.5 c 128,-1,16
 426 376 426 376 429.5 436 c 128,-1,17
 433 496 433 496 438 548.5 c 128,-1,18
 443 601 443 601 447 640 c 1,19,-1
 362 310 l 1,20,-1
 237 310 l 1,21,-1
 149 640 l 1,22,23
 156 591 156 591 162.5 517 c 128,-1,24
 169 443 169 443 174 360 c 128,-1,25
 179 277 179 277 179 200 c 2,26,-1
 179 0 l 1,27,-1
 42 0 l 1,0,-1
EndSplineSet
EndChar

StartChar: N
Encoding: 78 78 16
Width: 600
GlyphClass: 2
Flags: W
LayerCount: 2
Fore
SplineSet
60 0 m 1,0,-1
 60 730 l 1,1,-1
 235 730 l 1,2,-1
 424 165 l 1,3,4
 421 202 421 202 417 250.5 c 128,-1,5
 413 299 413 299 410.5 347.5 c 128,-1,6
 408 396 408 396 408 430 c 2,7,-1
 408 730 l 1,8,-1
 540 730 l 1,9,-1
 540 0 l 1,10,-1
 365 0 l 1,11,-1
 178 565 l 1,12,13
 181 533 181 533 184 489 c 128,-1,14
 187 445 187 445 189.5 400 c 128,-1,15
 192 355 192 355 192 320 c 2,16,-1
 192 0 l 1,17,-1
 60 0 l 1,0,-1
EndSplineSet
EndChar

StartChar: O
Encoding: 79 79 18
Width: 600
GlyphClass: 2
Flags: W
LayerCount: 2
Fore
SplineSet
300 -10 m 0,0,1
 227 -10 227 -10 173 17.5 c 128,-1,2
 119 45 119 45 89.5 94.5 c 128,-1,3
 60 144 60 144 60 210 c 2,4,-1
 60 520 l 2,5,6
 60 586 60 586 89.5 635.5 c 128,-1,7
 119 685 119 685 173 712.5 c 128,-1,8
 227 740 227 740 300 740 c 0,9,10
 374 740 374 740 427.5 712.5 c 128,-1,11
 481 685 481 685 510.5 635.5 c 128,-1,12
 540 586 540 586 540 520 c 2,13,-1
 540 210 l 2,14,15
 540 144 540 144 510.5 94.5 c 128,-1,16
 481 45 481 45 427.5 17.5 c 128,-1,17
 374 -10 374 -10 300 -10 c 0,0,1
300 120 m 256,18,19
 390 120 390 120 390 210 c 2,20,-1
 390 520 l 2,21,22
 390 610 390 610 300 610 c 256,23,24
 210 610 210 610 210 520 c 2,25,-1
 210 210 l 2,26,27
 210 120 210 120 300 120 c 256,18,19
EndSplineSet
EndChar

StartChar: P
Encoding: 80 80 20
Width: 600
GlyphClass: 2
Flags: W
LayerCount: 2
Fore
SplineSet
66 0 m 1,0,-1
 66 730 l 1,1,-1
 315 730 l 2,2,3
 392 730 392 730 449.5 701 c 128,-1,4
 507 672 507 672 538.5 620 c 128,-1,5
 570 568 570 568 570 498 c 0,6,7
 570 429 570 429 538 376.5 c 128,-1,8
 506 324 506 324 449 295 c 128,-1,9
 392 266 392 266 315 266 c 2,10,-1
 216 266 l 1,11,-1
 216 0 l 1,12,-1
 66 0 l 1,0,-1
216 401 m 1,13,-1
 315 401 l 2,14,15
 363 401 363 401 391.5 427.5 c 128,-1,16
 420 454 420 454 420 498 c 256,17,18
 420 542 420 542 391.5 568.5 c 128,-1,19
 363 595 363 595 315 595 c 2,20,-1
 216 595 l 1,21,-1
 216 401 l 1,13,-1
EndSplineSet
EndChar

StartChar: Q
Encoding: 81 81 21
Width: 600
GlyphClass: 2
Flags: W
LayerCount: 2
Fore
SplineSet
400 -180 m 1,0,-1
 297 -10 l 1,1,2
 225 -9 225 -9 172 18.5 c 128,-1,3
 119 46 119 46 89.5 95.5 c 128,-1,4
 60 145 60 145 60 210 c 2,5,-1
 60 520 l 2,6,7
 60 587 60 587 90 636 c 128,-1,8
 120 685 120 685 174 712.5 c 128,-1,9
 228 740 228 740 300 740 c 256,10,11
 372 740 372 740 426 712.5 c 128,-1,12
 480 685 480 685 510 635.5 c 128,-1,13
 540 586 540 586 540 520 c 2,14,-1
 540 210 l 2,15,16
 540 145 540 145 512.5 95.5 c 128,-1,17
 485 46 485 46 433 20 c 1,18,-1
 556 -180 l 1,19,-1
 400 -180 l 1,0,-1
300 121 m 0,20,21
 347 121 347 121 368.5 144 c 128,-1,22
 390 167 390 167 390 210 c 2,23,-1
 390 520 l 2,24,25
 390 564 390 564 367 587 c 128,-1,26
 344 610 344 610 300 610 c 0,27,28
 257 610 257 610 233.5 587 c 128,-1,29
 210 564 210 564 210 520 c 2,30,-1
 210 210 l 2,31,32
 210 167 210 167 232 144 c 128,-1,33
 254 121 254 121 300 121 c 0,20,21
EndSplineSet
EndChar

StartChar: R
Encoding: 82 82 22
Width: 600
GlyphClass: 2
Flags: W
LayerCount: 2
Fore
SplineSet
65 0 m 1,0,-1
 65 730 l 1,1,-1
 300 730 l 2,2,3
 378 730 378 730 435 703 c 128,-1,4
 492 676 492 676 523.5 626 c 128,-1,5
 555 576 555 576 555 508 c 0,6,7
 555 437 555 437 520.5 381 c 128,-1,8
 486 325 486 325 427 300 c 1,9,-1
 565 0 l 1,10,-1
 402 0 l 1,11,-1
 284 276 l 1,12,-1
 214 276 l 1,13,-1
 214 0 l 1,14,-1
 65 0 l 1,0,-1
214 406 m 1,15,-1
 300 406 l 2,16,17
 350 406 350 406 377.5 431 c 128,-1,18
 405 456 405 456 405 501 c 0,19,20
 405 548 405 548 377.5 574 c 128,-1,21
 350 600 350 600 300 600 c 2,22,-1
 214 600 l 1,23,-1
 214 406 l 1,15,-1
EndSplineSet
EndChar

StartChar: S
Encoding: 83 83 23
Width: 600
GlyphClass: 2
Flags: W
LayerCount: 2
Fore
SplineSet
300 -10 m 256,0,1
 223 -10 223 -10 166 16 c 128,-1,2
 109 42 109 42 78 89 c 128,-1,3
 47 136 47 136 47 200 c 1,4,-1
 197 200 l 1,5,6
 197 163 197 163 225.5 141.5 c 128,-1,7
 254 120 254 120 303 120 c 0,8,9
 350 120 350 120 376.5 141 c 128,-1,10
 403 162 403 162 403 199 c 0,11,12
 403 231 403 231 383 254 c 128,-1,13
 363 277 363 277 327 285 c 2,14,-1
 253 302 l 2,15,16
 160 324 160 324 108.5 383.5 c 128,-1,17
 57 443 57 443 57 529 c 0,18,19
 57 625 57 625 122 682.5 c 128,-1,20
 187 740 187 740 298 740 c 0,21,22
 410 740 410 740 475.5 684.5 c 128,-1,23
 541 629 541 629 541 535 c 1,24,-1
 391 535 l 1,25,26
 391 570 391 570 366.5 590 c 128,-1,27
 342 610 342 610 296 610 c 0,28,29
 253 610 253 610 230 590.5 c 128,-1,30
 207 571 207 571 207 535 c 0,31,32
 207 503 207 503 225.5 480.5 c 128,-1,33
 244 458 244 458 278 450 c 2,34,-1
 356 432 l 2,35,36
 453 410 453 410 503 352.5 c 128,-1,37
 553 295 553 295 553 206 c 0,38,39
 553 142 553 142 521.5 93 c 128,-1,40
 490 44 490 44 433.5 17 c 128,-1,41
 377 -10 377 -10 300 -10 c 256,0,1
EndSplineSet
EndChar

StartChar: T
Encoding: 84 84 24
Width: 600
GlyphClass: 2
Flags: W
LayerCount: 2
Fore
SplineSet
225 0 m 1,0,-1
 225 590 l 1,1,-1
 40 590 l 1,2,-1
 40 730 l 1,3,-1
 560 730 l 1,4,-1
 560 590 l 1,5,-1
 375 590 l 1,6,-1
 375 0 l 1,7,-1
 225 0 l 1,0,-1
EndSplineSet
EndChar

StartChar: U
Encoding: 85 85 25
Width: 600
GlyphClass: 2
Flags: W
LayerCount: 2
Fore
SplineSet
300 -10 m 256,0,1
 189 -10 189 -10 124.5 50 c 128,-1,2
 60 110 60 110 60 214 c 2,3,-1
 60 730 l 1,4,-1
 210 730 l 1,5,-1
 210 215 l 2,6,7
 210 169 210 169 233.5 144.5 c 128,-1,8
 257 120 257 120 300 120 c 0,9,10
 342 120 342 120 366 144.5 c 128,-1,11
 390 169 390 169 390 215 c 2,12,-1
 390 730 l 1,13,-1
 540 730 l 1,14,-1
 540 214 l 2,15,16
 540 111 540 111 475.5 50.5 c 128,-1,17
 411 -10 411 -10 300 -10 c 256,0,1
EndSplineSet
EndChar

StartChar: V
Encoding: 86 86 28
Width: 600
GlyphClass: 2
Flags: W
LayerCount: 2
Fore
SplineSet
206 0 m 1,0,-1
 25 730 l 1,1,-1
 180 730 l 1,2,-1
 281 269 l 2,3,4
 286 245 286 245 293.5 208 c 128,-1,5
 301 171 301 171 305 145 c 1,6,7
 309 171 309 171 315 208 c 128,-1,8
 321 245 321 245 326 270 c 2,9,-1
 424 730 l 1,10,-1
 575 730 l 1,11,-1
 396 0 l 1,12,-1
 206 0 l 1,0,-1
EndSplineSet
EndChar

StartChar: W
Encoding: 87 87 29
Width: 600
GlyphClass: 2
Flags: W
LayerCount: 2
Fore
SplineSet
78 0 m 1,0,-1
 10 730 l 1,1,-1
 133 730 l 1,2,-1
 170 242 l 2,3,4
 171 228 171 228 172 202.5 c 128,-1,5
 173 177 173 177 174.5 149.5 c 128,-1,6
 176 122 176 122 176 100 c 1,7,8
 178 122 178 122 180.5 149.5 c 128,-1,9
 183 177 183 177 186 202.5 c 128,-1,10
 189 228 189 228 190 242 c 2,11,-1
 244 730 l 1,12,-1
 358 730 l 1,13,-1
 410 242 l 2,14,15
 412 228 412 228 414.5 202.5 c 128,-1,16
 417 177 417 177 420.5 149.5 c 128,-1,17
 424 122 424 122 426 100 c 1,18,19
 427 122 427 122 428 149.5 c 128,-1,20
 429 177 429 177 430 202.5 c 128,-1,21
 431 228 431 228 432 242 c 2,22,-1
 466 730 l 1,23,-1
 590 730 l 1,24,-1
 517 0 l 1,25,-1
 361 0 l 1,26,-1
 312 485 l 2,27,28
 310 502 310 502 308 529.5 c 128,-1,29
 306 557 306 557 304 587 c 128,-1,30
 302 617 302 617 300 640 c 1,31,32
 299 617 299 617 297 587 c 128,-1,33
 295 557 295 557 293 529.5 c 128,-1,34
 291 502 291 502 289 485 c 2,35,-1
 235 0 l 1,36,-1
 78 0 l 1,0,-1
EndSplineSet
EndChar

StartChar: X
Encoding: 88 88 30
Width: 600
GlyphClass: 2
Flags: W
LayerCount: 2
Fore
SplineSet
20 0 m 1,0,-1
 216 377 l 1,1,-1
 33 730 l 1,2,-1
 198 730 l 1,3,-1
 274 570 l 2,4,5
 285 548 285 548 292.5 530 c 128,-1,6
 300 512 300 512 302 504 c 1,7,8
 304 512 304 512 311 530 c 128,-1,9
 318 548 318 548 328 570 c 2,10,-1
 406 730 l 1,11,-1
 567 730 l 1,12,-1
 384 377 l 1,13,-1
 580 0 l 1,14,-1
 415 0 l 1,15,-1
 327 180 l 2,16,17
 317 202 317 202 309 221 c 128,-1,18
 301 240 301 240 297 250 c 1,19,20
 294 240 294 240 287 221 c 128,-1,21
 280 202 280 202 269 180 c 2,22,-1
 181 0 l 1,23,-1
 20 0 l 1,0,-1
EndSplineSet
EndChar

StartChar: Y
Encoding: 89 89 31
Width: 600
GlyphClass: 2
Flags: W
LayerCount: 2
Fore
SplineSet
225 0 m 1,0,-1
 225 260 l 1,1,-1
 15 730 l 1,2,-1
 172 730 l 1,3,-1
 264 510 l 2,4,5
 278 477 278 477 288.5 440 c 128,-1,6
 299 403 299 403 303 380 c 1,7,8
 308 403 308 403 317.5 440 c 128,-1,9
 327 477 327 477 340 510 c 2,10,-1
 429 730 l 1,11,-1
 585 730 l 1,12,-1
 375 260 l 1,13,-1
 375 0 l 1,14,-1
 225 0 l 1,0,-1
EndSplineSet
EndChar

StartChar: Z
Encoding: 90 90 32
Width: 600
GlyphClass: 2
Flags: W
LayerCount: 2
Fore
SplineSet
75 0 m 1,0,-1
 75 140 l 1,1,-1
 343 590 l 1,2,-1
 83 590 l 1,3,-1
 83 730 l 1,4,-1
 514 730 l 1,5,-1
 514 590 l 1,6,-1
 245 140 l 1,7,-1
 525 140 l 1,8,-1
 525 0 l 1,9,-1
 75 0 l 1,0,-1
EndSplineSet
EndChar

StartChar: a
Encoding: 97 97 33
Width: 600
GlyphClass: 2
Flags: W
LayerCount: 2
Fore
SplineSet
229 -10 m 0,0,1
 146 -10 146 -10 97.5 35 c 128,-1,2
 49 80 49 80 49 157 c 0,3,4
 49 240 49 240 106.5 284.5 c 128,-1,5
 164 329 164 329 272 329 c 2,6,-1
 386 329 l 1,7,-1
 386 370 l 2,8,9
 386 402 386 402 363.5 421 c 128,-1,10
 341 440 341 440 303 440 c 0,11,12
 268 440 268 440 245 424 c 128,-1,13
 222 408 222 408 217 380 c 1,14,-1
 72 380 l 1,15,16
 81 463 81 463 144.5 511.5 c 128,-1,17
 208 560 208 560 308 560 c 0,18,19
 413 560 413 560 474.5 508.5 c 128,-1,20
 536 457 536 457 536 370 c 2,21,-1
 536 0 l 1,22,-1
 391 0 l 1,23,-1
 391 90 l 1,24,-1
 388 90 l 1,25,26
 376 43 376 43 334 16.5 c 128,-1,27
 292 -10 292 -10 229 -10 c 0,0,1
285 100 m 0,28,29
 329 100 329 100 357.5 123.5 c 128,-1,30
 386 147 386 147 386 185 c 2,31,-1
 386 244 l 1,32,-1
 275 244 l 2,33,34
 241 244 241 244 220 224.5 c 128,-1,35
 199 205 199 205 199 173 c 0,36,37
 199 139 199 139 222 119.5 c 128,-1,38
 245 100 245 100 285 100 c 0,28,29
EndSplineSet
EndChar

StartChar: b
Encoding: 98 98 35
Width: 600
GlyphClass: 2
Flags: W
LayerCount: 2
Fore
SplineSet
357 -10 m 0,0,1
 298 -10 298 -10 260.5 20 c 128,-1,2
 223 50 223 50 214 105 c 1,3,-1
 211 105 l 1,4,-1
 211 0 l 1,5,-1
 66 0 l 1,6,-1
 66 730 l 1,7,-1
 216 730 l 1,8,-1
 216 580 l 1,9,-1
 211 445 l 1,10,-1
 214 445 l 1,11,12
 223 500 223 500 260.5 530 c 128,-1,13
 298 560 298 560 357 560 c 0,14,15
 440 560 440 560 490 501.5 c 128,-1,16
 540 443 540 443 540 345 c 2,17,-1
 540 205 l 2,18,19
 540 106 540 106 490 48 c 128,-1,20
 440 -10 440 -10 357 -10 c 0,0,1
303 120 m 0,21,22
 345 120 345 120 367.5 143.5 c 128,-1,23
 390 167 390 167 390 210 c 2,24,-1
 390 340 l 2,25,26
 390 383 390 383 367.5 406.5 c 128,-1,27
 345 430 345 430 303 430 c 0,28,29
 262 430 262 430 239 406.5 c 128,-1,30
 216 383 216 383 216 340 c 2,31,-1
 216 210 l 2,32,33
 216 167 216 167 239 143.5 c 128,-1,34
 262 120 262 120 303 120 c 0,21,22
EndSplineSet
EndChar

StartChar: c
Encoding: 99 99 36
Width: 600
GlyphClass: 2
Flags: W
LayerCount: 2
Fore
SplineSet
303 -10 m 0,0,1
 230 -10 230 -10 175 17.5 c 128,-1,2
 120 45 120 45 90 94.5 c 128,-1,3
 60 144 60 144 60 210 c 2,4,-1
 60 340 l 2,5,6
 60 407 60 407 90 456 c 128,-1,7
 120 505 120 505 175 532.5 c 128,-1,8
 230 560 230 560 303 560 c 0,9,10
 412 560 412 560 477 505 c 128,-1,11
 542 450 542 450 546 355 c 1,12,-1
 396 355 l 1,13,14
 393 390 393 390 368.5 410 c 128,-1,15
 344 430 344 430 303 430 c 0,16,17
 258 430 258 430 234 407 c 128,-1,18
 210 384 210 384 210 340 c 2,19,-1
 210 210 l 2,20,21
 210 167 210 167 234 143.5 c 128,-1,22
 258 120 258 120 303 120 c 0,23,24
 344 120 344 120 368.5 139.5 c 128,-1,25
 393 159 393 159 396 195 c 1,26,-1
 546 195 l 1,27,28
 542 100 542 100 477 45 c 128,-1,29
 412 -10 412 -10 303 -10 c 0,0,1
EndSplineSet
EndChar

StartChar: d
Encoding: 100 100 37
Width: 600
Flags: W
LayerCount: 2
Fore
SplineSet
243 -10 m 0,0,1
 160 -10 160 -10 110 48 c 128,-1,2
 60 106 60 106 60 205 c 2,3,-1
 60 345 l 2,4,5
 60 443 60 443 110 501.5 c 128,-1,6
 160 560 160 560 243 560 c 0,7,8
 302 560 302 560 339.5 530 c 128,-1,9
 377 500 377 500 386 445 c 1,10,-1
 389 445 l 1,11,-1
 384 580 l 1,12,-1
 384 730 l 1,13,-1
 534 730 l 1,14,-1
 534 0 l 1,15,-1
 389 0 l 1,16,-1
 389 105 l 1,17,-1
 386 105 l 1,18,19
 377 50 377 50 339.5 20 c 128,-1,20
 302 -10 302 -10 243 -10 c 0,0,1
297 120 m 0,21,22
 338 120 338 120 361 143.5 c 128,-1,23
 384 167 384 167 384 210 c 2,24,-1
 384 340 l 2,25,26
 384 383 384 383 361 406.5 c 128,-1,27
 338 430 338 430 297 430 c 0,28,29
 255 430 255 430 232.5 406.5 c 128,-1,30
 210 383 210 383 210 340 c 2,31,-1
 210 210 l 2,32,33
 210 167 210 167 232.5 143.5 c 128,-1,34
 255 120 255 120 297 120 c 0,21,22
EndSplineSet
EndChar

StartChar: e
Encoding: 101 101 38
Width: 600
GlyphClass: 2
Flags: W
LayerCount: 2
Fore
SplineSet
301 -10 m 0,0,1
 228 -10 228 -10 173.5 17.5 c 128,-1,2
 119 45 119 45 89.5 94.5 c 128,-1,3
 60 144 60 144 60 210 c 2,4,-1
 60 340 l 2,5,6
 60 406 60 406 89.5 455.5 c 128,-1,7
 119 505 119 505 173.5 532.5 c 128,-1,8
 228 560 228 560 301 560 c 256,9,10
 374 560 374 560 427.5 532.5 c 128,-1,11
 481 505 481 505 510.5 455.5 c 128,-1,12
 540 406 540 406 540 340 c 2,13,-1
 540 240 l 1,14,-1
 203 240 l 1,15,-1
 203 210 l 2,16,17
 203 105 203 105 303 105 c 0,18,19
 374 105 374 105 388 150 c 1,20,-1
 535 150 l 1,21,22
 517 78 517 78 453.5 34 c 128,-1,23
 390 -10 390 -10 301 -10 c 0,0,1
203 340 m 2,24,-1
 203 325 l 1,25,-1
 397 327 l 1,26,-1
 397 342 l 2,27,28
 397 447 397 447 301 447 c 0,29,30
 252 447 252 447 227.5 419 c 128,-1,31
 203 391 203 391 203 340 c 2,24,-1
EndSplineSet
EndChar

StartChar: f
Encoding: 102 102 40
Width: 600
Flags: W
LayerCount: 2
Fore
SplineSet
195 0 m 1,0,-1
 195 350 l 1,1,-1
 49 350 l 1,2,-1
 49 485 l 1,3,-1
 195 485 l 1,4,-1
 195 560 l 2,5,6
 195 637 195 637 247.5 683.5 c 128,-1,7
 300 730 300 730 385 730 c 2,8,-1
 546 730 l 1,9,-1
 546 600 l 1,10,-1
 390 600 l 2,11,12
 370 600 370 600 357.5 587.5 c 128,-1,13
 345 575 345 575 345 555 c 2,14,-1
 345 485 l 1,15,-1
 546 485 l 1,16,-1
 546 350 l 1,17,-1
 345 350 l 1,18,-1
 345 0 l 1,19,-1
 195 0 l 1,0,-1
EndSplineSet
EndChar

StartChar: g
Encoding: 103 103 41
Width: 600
GlyphClass: 2
Flags: W
LayerCount: 2
Fore
SplineSet
145 -180 m 1,0,-1
 145 -60 l 1,1,-1
 300 -60 l 2,2,3
 342 -60 342 -60 364.5 -39 c 128,-1,4
 387 -18 387 -18 387 19 c 2,5,-1
 387 40 l 1,6,-1
 389 145 l 1,7,-1
 386 145 l 1,8,9
 377 90 377 90 339.5 60 c 128,-1,10
 302 30 302 30 243 30 c 0,11,12
 160 30 160 30 110 88 c 128,-1,13
 60 146 60 146 60 245 c 2,14,-1
 60 345 l 2,15,16
 60 443 60 443 110 501.5 c 128,-1,17
 160 560 160 560 243 560 c 0,18,19
 302 560 302 560 339.5 530 c 128,-1,20
 377 500 377 500 386 445 c 1,21,-1
 389 445 l 1,22,-1
 384 550 l 1,23,-1
 534 550 l 1,24,-1
 534 14 l 2,25,26
 534 -76 534 -76 472.5 -128 c 128,-1,27
 411 -180 411 -180 305 -180 c 2,28,-1
 145 -180 l 1,0,-1
297 160 m 0,29,30
 338 160 338 160 361 183.5 c 128,-1,31
 384 207 384 207 384 250 c 2,32,-1
 384 340 l 2,33,34
 384 383 384 383 361 406.5 c 128,-1,35
 338 430 338 430 297 430 c 0,36,37
 255 430 255 430 232.5 406.5 c 128,-1,38
 210 383 210 383 210 340 c 2,39,-1
 210 250 l 2,40,41
 210 207 210 207 232.5 183.5 c 128,-1,42
 255 160 255 160 297 160 c 0,29,30
EndSplineSet
EndChar

StartChar: h
Encoding: 104 104 42
Width: 600
Flags: W
LayerCount: 2
Fore
SplineSet
66 0 m 1,0,-1
 66 730 l 1,1,-1
 216 730 l 1,2,-1
 216 550 l 1,3,-1
 211 445 l 1,4,-1
 214 445 l 1,5,6
 224 499 224 499 262 529.5 c 128,-1,7
 300 560 300 560 359 560 c 0,8,9
 439 560 439 560 487.5 504 c 128,-1,10
 536 448 536 448 536 355 c 2,11,-1
 536 0 l 1,12,-1
 386 0 l 1,13,-1
 386 340 l 2,14,15
 386 383 386 383 363.5 406.5 c 128,-1,16
 341 430 341 430 300 430 c 0,17,18
 260 430 260 430 238 406.5 c 128,-1,19
 216 383 216 383 216 340 c 2,20,-1
 216 0 l 1,21,-1
 66 0 l 1,0,-1
EndSplineSet
EndChar

StartChar: dotlessi
Encoding: 421 305 44
Width: 600
GlyphClass: 2
Flags: W
LayerCount: 2
Fore
SplineSet
70 0 m 1,0,-1
 70 136 l 1,1,-1
 260 136 l 1,2,-1
 260 415 l 1,3,-1
 95 415 l 1,4,-1
 95 550 l 1,5,-1
 400 550 l 1,6,-1
 400 136 l 1,7,-1
 560 136 l 1,8,-1
 560 0 l 1,9,-1
 70 0 l 1,0,-1
EndSplineSet
EndChar

StartChar: uni0237
Encoding: 429 567 47
Width: 600
GlyphClass: 2
Flags: W
LayerCount: 2
Fore
SplineSet
60 -180 m 1,0,-1
 60 -40 l 1,1,-1
 235 -40 l 2,2,3
 276 -40 276 -40 298 -17.5 c 128,-1,4
 320 5 320 5 320 45 c 2,5,-1
 320 410 l 1,6,-1
 80 410 l 1,7,-1
 80 550 l 1,8,-1
 470 550 l 1,9,-1
 470 40 l 2,10,11
 470 -62 470 -62 410 -121 c 128,-1,12
 350 -180 350 -180 246 -180 c 2,13,-1
 60 -180 l 1,0,-1
EndSplineSet
EndChar

StartChar: k
Encoding: 107 107 48
Width: 600
GlyphClass: 2
Flags: W
LayerCount: 2
Fore
SplineSet
69 0 m 1,0,-1
 69 730 l 1,1,-1
 219 730 l 1,2,-1
 219 342 l 1,3,-1
 293 342 l 1,4,-1
 408 550 l 1,5,-1
 575 550 l 1,6,-1
 422 281 l 1,7,-1
 578 0 l 1,8,-1
 408 0 l 1,9,-1
 292 216 l 1,10,-1
 219 216 l 1,11,-1
 219 0 l 1,12,-1
 69 0 l 1,0,-1
EndSplineSet
EndChar

StartChar: l
Encoding: 108 108 49
Width: 600
GlyphClass: 2
Flags: W
LayerCount: 2
Fore
SplineSet
395 0 m 2,0,1
 337 0 337 0 293 24.5 c 128,-1,2
 249 49 249 49 224.5 93 c 128,-1,3
 200 137 200 137 200 195 c 2,4,-1
 200 595 l 1,5,-1
 25 595 l 1,6,-1
 25 730 l 1,7,-1
 350 730 l 1,8,-1
 350 195 l 2,9,10
 350 168 350 168 366.5 151.5 c 128,-1,11
 383 135 383 135 410 135 c 2,12,-1
 565 135 l 1,13,-1
 565 0 l 1,14,-1
 395 0 l 2,0,1
EndSplineSet
EndChar

StartChar: m
Encoding: 109 109 50
Width: 600
Flags: W
LayerCount: 2
Fore
SplineSet
42 0 m 1,0,-1
 42 550 l 1,1,-1
 160 550 l 1,2,-1
 160 470 l 1,3,-1
 166 470 l 1,4,5
 170 510 170 510 194 535 c 128,-1,6
 218 560 218 560 255 560 c 0,7,8
 291 560 291 560 315.5 535 c 128,-1,9
 340 510 340 510 347 470 c 1,10,-1
 352 470 l 1,11,12
 356 510 356 510 382 535 c 128,-1,13
 408 560 408 560 447 560 c 0,14,15
 496 560 496 560 527.5 521 c 128,-1,16
 559 482 559 482 559 420 c 2,17,-1
 559 0 l 1,18,-1
 430 0 l 1,19,-1
 430 403 l 2,20,21
 430 451 430 451 391 451 c 256,22,23
 352 451 352 451 352 403 c 2,24,-1
 352 0 l 1,25,-1
 249 0 l 1,26,-1
 249 403 l 2,27,28
 249 451 249 451 210 451 c 256,29,30
 171 451 171 451 171 403 c 2,31,-1
 171 0 l 1,32,-1
 42 0 l 1,0,-1
EndSplineSet
EndChar

StartChar: n
Encoding: 110 110 51
Width: 600
GlyphClass: 2
Flags: W
LayerCount: 2
Fore
SplineSet
66 0 m 1,0,-1
 66 550 l 1,1,-1
 211 550 l 1,2,-1
 211 445 l 1,3,-1
 214 445 l 1,4,5
 224 498 224 498 262 529 c 128,-1,6
 300 560 300 560 359 560 c 0,7,8
 439 560 439 560 487.5 504 c 128,-1,9
 536 448 536 448 536 355 c 2,10,-1
 536 0 l 1,11,-1
 386 0 l 1,12,-1
 386 340 l 2,13,14
 386 383 386 383 363.5 406.5 c 128,-1,15
 341 430 341 430 301 430 c 256,16,17
 261 430 261 430 238.5 406.5 c 128,-1,18
 216 383 216 383 216 340 c 2,19,-1
 216 0 l 1,20,-1
 66 0 l 1,0,-1
EndSplineSet
EndChar

StartChar: o
Encoding: 111 111 53
Width: 600
GlyphClass: 2
Flags: W
LayerCount: 2
Fore
SplineSet
300 -10 m 0,0,1
 227 -10 227 -10 173 17.5 c 128,-1,2
 119 45 119 45 89.5 94.5 c 128,-1,3
 60 144 60 144 60 210 c 2,4,-1
 60 340 l 2,5,6
 60 406 60 406 89.5 455.5 c 128,-1,7
 119 505 119 505 173 532.5 c 128,-1,8
 227 560 227 560 300 560 c 0,9,10
 374 560 374 560 427.5 532.5 c 128,-1,11
 481 505 481 505 510.5 455.5 c 128,-1,12
 540 406 540 406 540 340 c 2,13,-1
 540 210 l 2,14,15
 540 144 540 144 510.5 94.5 c 128,-1,16
 481 45 481 45 427.5 17.5 c 128,-1,17
 374 -10 374 -10 300 -10 c 0,0,1
300 120 m 0,18,19
 344 120 344 120 367 143.5 c 128,-1,20
 390 167 390 167 390 210 c 2,21,-1
 390 340 l 2,22,23
 390 384 390 384 367 407 c 128,-1,24
 344 430 344 430 300 430 c 0,25,26
 257 430 257 430 233.5 407 c 128,-1,27
 210 384 210 384 210 340 c 2,28,-1
 210 210 l 2,29,30
 210 167 210 167 233.5 143.5 c 128,-1,31
 257 120 257 120 300 120 c 0,18,19
EndSplineSet
EndChar

StartChar: p
Encoding: 112 112 55
Width: 600
Flags: W
LayerCount: 2
Fore
SplineSet
66 -180 m 1,0,-1
 66 550 l 1,1,-1
 211 550 l 1,2,-1
 211 445 l 1,3,-1
 214 445 l 1,4,5
 223 500 223 500 260.5 530 c 128,-1,6
 298 560 298 560 357 560 c 0,7,8
 440 560 440 560 490 501.5 c 128,-1,9
 540 443 540 443 540 345 c 2,10,-1
 540 205 l 2,11,12
 540 107 540 107 490 48.5 c 128,-1,13
 440 -10 440 -10 357 -10 c 0,14,15
 298 -10 298 -10 260.5 20 c 128,-1,16
 223 50 223 50 214 105 c 1,17,-1
 211 105 l 1,18,-1
 216 -30 l 1,19,-1
 216 -180 l 1,20,-1
 66 -180 l 1,0,-1
303 120 m 0,21,22
 345 120 345 120 367.5 143.5 c 128,-1,23
 390 167 390 167 390 210 c 2,24,-1
 390 340 l 2,25,26
 390 384 390 384 367.5 407 c 128,-1,27
 345 430 345 430 303 430 c 0,28,29
 262 430 262 430 239 406.5 c 128,-1,30
 216 383 216 383 216 340 c 2,31,-1
 216 210 l 2,32,33
 216 167 216 167 239 143.5 c 128,-1,34
 262 120 262 120 303 120 c 0,21,22
EndSplineSet
EndChar

StartChar: q
Encoding: 113 113 56
Width: 600
Flags: W
LayerCount: 2
Fore
SplineSet
384 -180 m 1,0,-1
 384 -30 l 1,1,-1
 389 105 l 1,2,-1
 384 105 l 1,3,4
 375 50 375 50 338.5 20 c 128,-1,5
 302 -10 302 -10 243 -10 c 0,6,7
 160 -10 160 -10 110 48.5 c 128,-1,8
 60 107 60 107 60 205 c 2,9,-1
 60 345 l 2,10,11
 60 443 60 443 110 501.5 c 128,-1,12
 160 560 160 560 243 560 c 0,13,14
 302 560 302 560 338.5 530 c 128,-1,15
 375 500 375 500 384 445 c 1,16,-1
 389 445 l 1,17,-1
 389 550 l 1,18,-1
 534 550 l 1,19,-1
 534 -180 l 1,20,-1
 384 -180 l 1,0,-1
297 120 m 0,21,22
 338 120 338 120 361 143.5 c 128,-1,23
 384 167 384 167 384 210 c 2,24,-1
 384 340 l 2,25,26
 384 383 384 383 361 406.5 c 128,-1,27
 338 430 338 430 297 430 c 0,28,29
 255 430 255 430 232.5 407 c 128,-1,30
 210 384 210 384 210 340 c 2,31,-1
 210 210 l 2,32,33
 210 167 210 167 232.5 143.5 c 128,-1,34
 255 120 255 120 297 120 c 0,21,22
EndSplineSet
EndChar

StartChar: r
Encoding: 114 114 57
Width: 600
GlyphClass: 2
Flags: W
LayerCount: 2
Fore
SplineSet
82 0 m 1,0,-1
 82 550 l 1,1,-1
 222 550 l 1,2,-1
 222 445 l 1,3,-1
 224 445 l 1,4,5
 251 560 251 560 378 560 c 0,6,7
 469 560 469 560 519.5 505 c 128,-1,8
 570 450 570 450 570 350 c 2,9,-1
 570 305 l 1,10,-1
 410 305 l 1,11,-1
 410 340 l 2,12,13
 410 385 410 385 385.5 410 c 128,-1,14
 361 435 361 435 320 435 c 0,15,16
 277 435 277 435 254.5 410 c 128,-1,17
 232 385 232 385 232 340 c 2,18,-1
 232 0 l 1,19,-1
 82 0 l 1,0,-1
EndSplineSet
EndChar

StartChar: s
Encoding: 115 115 58
Width: 600
GlyphClass: 2
Flags: W
LayerCount: 2
Fore
SplineSet
277 -10 m 2,0,1
 209 -10 209 -10 158 11.5 c 128,-1,2
 107 33 107 33 78.5 71 c 128,-1,3
 50 109 50 109 50 160 c 1,4,-1
 200 160 l 1,5,6
 200 136 200 136 221.5 121.5 c 128,-1,7
 243 107 243 107 277 107 c 2,8,-1
 321 107 l 2,9,10
 405 107 405 107 405 164 c 0,11,12
 405 211 405 211 327 221 c 2,13,-1
 263 229 l 2,14,15
 160 242 160 242 113 279 c 128,-1,16
 66 316 66 316 66 392 c 0,17,18
 66 472 66 472 121 516 c 128,-1,19
 176 560 176 560 282 560 c 2,20,-1
 320 560 l 2,21,22
 421 560 421 560 481 516 c 128,-1,23
 541 472 541 472 541 398 c 1,24,-1
 391 398 l 1,25,26
 391 418 391 418 371.5 430.5 c 128,-1,27
 352 443 352 443 320 443 c 2,28,-1
 282 443 l 2,29,30
 245 443 245 443 228 430.5 c 128,-1,31
 211 418 211 418 211 393 c 0,32,33
 211 370 211 370 226.5 358 c 128,-1,34
 242 346 242 346 276 341 c 2,35,-1
 345 332 l 2,36,37
 449 319 449 319 499.5 280 c 128,-1,38
 550 241 550 241 550 164 c 0,39,40
 550 80 550 80 492 35 c 128,-1,41
 434 -10 434 -10 321 -10 c 2,42,-1
 277 -10 l 2,0,1
EndSplineSet
EndChar

StartChar: t
Encoding: 116 116 59
Width: 600
GlyphClass: 2
Flags: W
LayerCount: 2
Fore
SplineSet
360 0 m 2,0,1
 276 0 276 0 228 48 c 128,-1,2
 180 96 180 96 180 180 c 2,3,-1
 180 415 l 1,4,-1
 35 415 l 1,5,-1
 35 550 l 1,6,-1
 180 550 l 1,7,-1
 180 705 l 1,8,-1
 330 705 l 1,9,-1
 330 550 l 1,10,-1
 535 550 l 1,11,-1
 535 415 l 1,12,-1
 330 415 l 1,13,-1
 330 180 l 2,14,15
 330 135 330 135 375 135 c 2,16,-1
 525 135 l 1,17,-1
 525 0 l 1,18,-1
 360 0 l 2,0,1
EndSplineSet
EndChar

StartChar: u
Encoding: 117 117 60
Width: 600
GlyphClass: 2
Flags: W
LayerCount: 2
Fore
SplineSet
300 -10 m 0,0,1
 189 -10 189 -10 126.5 50 c 128,-1,2
 64 110 64 110 64 214 c 2,3,-1
 64 550 l 1,4,-1
 214 550 l 1,5,-1
 214 215 l 2,6,7
 214 120 214 120 300 120 c 0,8,9
 341 120 341 120 363.5 144.5 c 128,-1,10
 386 169 386 169 386 215 c 2,11,-1
 386 550 l 1,12,-1
 536 550 l 1,13,-1
 536 214 l 2,14,15
 536 109 536 109 473 49.5 c 128,-1,16
 410 -10 410 -10 300 -10 c 0,0,1
EndSplineSet
EndChar

StartChar: v
Encoding: 118 118 63
Width: 600
Flags: W
LayerCount: 2
Fore
SplineSet
207 0 m 1,0,-1
 27 550 l 1,1,-1
 182 550 l 1,2,-1
 274 241 l 2,3,4
 282 213 282 213 290 180 c 128,-1,5
 298 147 298 147 302 127 c 1,6,7
 307 147 307 147 314.5 180 c 128,-1,8
 322 213 322 213 329 240 c 2,9,-1
 420 550 l 1,10,-1
 573 550 l 1,11,-1
 395 0 l 1,12,-1
 207 0 l 1,0,-1
EndSplineSet
EndChar

StartChar: w
Encoding: 119 119 64
Width: 600
GlyphClass: 2
Flags: W
LayerCount: 2
Fore
SplineSet
90 0 m 1,0,-1
 10 550 l 1,1,-1
 130 550 l 1,2,-1
 170 250 l 2,3,4
 175 217 175 217 178.5 175 c 128,-1,5
 182 133 182 133 184 106 c 1,6,7
 187 133 187 133 192.5 174.5 c 128,-1,8
 198 216 198 216 203 250 c 2,9,-1
 249 550 l 1,10,-1
 353 550 l 1,11,-1
 397 250 l 2,12,13
 402 216 402 216 407.5 174 c 128,-1,14
 413 132 413 132 416 105 c 1,15,16
 418 133 418 133 422.5 175.5 c 128,-1,17
 427 218 427 218 431 250 c 2,18,-1
 473 550 l 1,19,-1
 590 550 l 1,20,-1
 509 0 l 1,21,-1
 359 0 l 1,22,-1
 318 310 l 2,23,24
 314 338 314 338 309 377 c 128,-1,25
 304 416 304 416 301 442 c 1,26,27
 297 416 297 416 292 377 c 128,-1,28
 287 338 287 338 283 310 c 2,29,-1
 241 0 l 1,30,-1
 90 0 l 1,0,-1
EndSplineSet
EndChar

StartChar: x
Encoding: 120 120 65
Width: 600
Flags: W
LayerCount: 2
Fore
SplineSet
26 0 m 1,0,-1
 216 285 l 1,1,-1
 39 550 l 1,2,-1
 206 550 l 1,3,-1
 274 440 l 2,4,5
 282 427 282 427 289 411 c 128,-1,6
 296 395 296 395 300 385 c 1,7,8
 304 395 304 395 311.5 411 c 128,-1,9
 319 427 319 427 326 440 c 2,10,-1
 394 550 l 1,11,-1
 561 550 l 1,12,-1
 385 285 l 1,13,-1
 574 0 l 1,14,-1
 407 0 l 1,15,-1
 327 130 l 2,16,17
 319 144 319 144 311.5 159.5 c 128,-1,18
 304 175 304 175 300 185 c 1,19,20
 296 175 296 175 289 159.5 c 128,-1,21
 282 144 282 144 274 130 c 2,22,-1
 193 0 l 1,23,-1
 26 0 l 1,0,-1
EndSplineSet
EndChar

StartChar: y
Encoding: 121 121 66
Width: 600
GlyphClass: 2
Flags: W
LayerCount: 2
Fore
SplineSet
157 -180 m 1,0,-1
 232 27 l 1,1,-1
 26 550 l 1,2,-1
 189 550 l 1,3,-1
 272 310 l 2,4,5
 281 283 281 283 290.5 244.5 c 128,-1,6
 300 206 300 206 305 182 c 1,7,8
 310 206 310 206 319.5 244.5 c 128,-1,9
 329 283 329 283 338 310 c 2,10,-1
 418 550 l 1,11,-1
 574 550 l 1,12,-1
 314 -180 l 1,13,-1
 157 -180 l 1,0,-1
EndSplineSet
EndChar

StartChar: z
Encoding: 122 122 67
Width: 600
GlyphClass: 2
Flags: W
LayerCount: 2
Fore
SplineSet
70 0 m 1,0,-1
 70 130 l 1,1,-1
 342 420 l 1,2,-1
 80 420 l 1,3,-1
 80 550 l 1,4,-1
 519 550 l 1,5,-1
 519 420 l 1,6,-1
 247 130 l 1,7,-1
 530 130 l 1,8,-1
 530 0 l 1,9,-1
 70 0 l 1,0,-1
EndSplineSet
EndChar

StartChar: zero
Encoding: 48 48 68
Width: 600
Flags: W
LayerCount: 2
Fore
SplineSet
300 -10 m 0,0,1
 227 -10 227 -10 173 17.5 c 128,-1,2
 119 45 119 45 89.5 94.5 c 128,-1,3
 60 144 60 144 60 210 c 2,4,-1
 60 520 l 2,5,6
 60 586 60 586 89.5 635.5 c 128,-1,7
 119 685 119 685 173 712.5 c 128,-1,8
 227 740 227 740 300 740 c 0,9,10
 374 740 374 740 427.5 712.5 c 128,-1,11
 481 685 481 685 510.5 635.5 c 128,-1,12
 540 586 540 586 540 520 c 2,13,-1
 540 210 l 2,14,15
 540 144 540 144 510.5 94.5 c 128,-1,16
 481 45 481 45 427.5 17.5 c 128,-1,17
 374 -10 374 -10 300 -10 c 0,0,1
200 520 m 2,18,-1
 200 305 l 1,19,-1
 400 523 l 1,20,21
 399 565 399 565 372 590 c 128,-1,22
 345 615 345 615 300 615 c 0,23,24
 254 615 254 615 227 589.5 c 128,-1,25
 200 564 200 564 200 520 c 2,18,-1
300 115 m 0,26,27
 345 115 345 115 372.5 141 c 128,-1,28
 400 167 400 167 400 210 c 2,29,-1
 400 425 l 1,30,-1
 200 207 l 1,31,32
 201 165 201 165 228.5 140 c 128,-1,33
 256 115 256 115 300 115 c 0,26,27
EndSplineSet
EndChar

StartChar: one
Encoding: 49 49 69
Width: 600
Flags: W
LayerCount: 2
Fore
SplineSet
80 0 m 1,0,-1
 80 130 l 1,1,-1
 264 130 l 1,2,-1
 264 593 l 1,3,-1
 78 455 l 1,4,-1
 78 610 l 1,5,-1
 249 730 l 1,6,-1
 414 730 l 1,7,-1
 414 130 l 1,8,-1
 560 130 l 1,9,-1
 560 0 l 1,10,-1
 80 0 l 1,0,-1
EndSplineSet
EndChar

StartChar: two
Encoding: 50 50 70
Width: 600
Flags: W
LayerCount: 2
Fore
SplineSet
70 0 m 1,0,-1
 70 132 l 1,1,-1
 302 365 l 2,2,3
 343 406 343 406 363.5 439.5 c 128,-1,4
 384 473 384 473 384 513 c 0,5,6
 384 557 384 557 360.5 581 c 128,-1,7
 337 605 337 605 296 605 c 0,8,9
 251 605 251 605 225.5 578.5 c 128,-1,10
 200 552 200 552 200 505 c 1,11,-1
 50 505 l 1,12,13
 50 577 50 577 80.5 629.5 c 128,-1,14
 111 682 111 682 167 711 c 128,-1,15
 223 740 223 740 299 740 c 0,16,17
 370 740 370 740 422.5 713.5 c 128,-1,18
 475 687 475 687 504.5 640 c 128,-1,19
 534 593 534 593 534 529 c 0,20,21
 534 458 534 458 499 393.5 c 128,-1,22
 464 329 464 329 387 257 c 2,23,-1
 257 135 l 1,24,-1
 542 135 l 1,25,-1
 542 0 l 1,26,-1
 70 0 l 1,0,-1
EndSplineSet
EndChar

StartChar: three
Encoding: 51 51 71
Width: 600
Flags: W
LayerCount: 2
Fore
SplineSet
296 -10 m 0,0,1
 184 -10 184 -10 118 46.5 c 128,-1,2
 52 103 52 103 52 200 c 1,3,-1
 202 200 l 1,4,5
 202 160 202 160 226.5 137.5 c 128,-1,6
 251 115 251 115 296 115 c 0,7,8
 390 115 390 115 390 200 c 2,9,-1
 390 258 l 2,10,11
 390 299 390 299 365.5 321.5 c 128,-1,12
 341 344 341 344 296 344 c 2,13,-1
 206 344 l 1,14,-1
 206 460 l 1,15,-1
 356 605 l 1,16,-1
 87 605 l 1,17,-1
 87 730 l 1,18,-1
 512 730 l 1,19,-1
 512 614 l 1,20,-1
 360 465 l 1,21,22
 444 450 444 450 492 396 c 128,-1,23
 540 342 540 342 540 259 c 2,24,-1
 540 200 l 2,25,26
 540 103 540 103 474.5 46.5 c 128,-1,27
 409 -10 409 -10 296 -10 c 0,0,1
EndSplineSet
EndChar

StartChar: four
Encoding: 52 52 72
Width: 600
Flags: W
LayerCount: 2
Fore
SplineSet
375 0 m 1,0,-1
 375 134 l 1,1,-1
 55 134 l 1,2,-1
 55 343 l 1,3,-1
 329 730 l 1,4,-1
 494 730 l 1,5,-1
 195 301 l 1,6,-1
 195 264 l 1,7,-1
 375 264 l 1,8,-1
 375 420 l 1,9,-1
 525 420 l 1,10,-1
 525 0 l 1,11,-1
 375 0 l 1,0,-1
EndSplineSet
EndChar

StartChar: five
Encoding: 53 53 73
Width: 600
Flags: W
LayerCount: 2
Fore
SplineSet
299 -10 m 0,0,1
 190 -10 190 -10 126 44 c 128,-1,2
 62 98 62 98 60 190 c 1,3,-1
 210 190 l 1,4,5
 212 157 212 157 235 138.5 c 128,-1,6
 258 120 258 120 299 120 c 0,7,8
 343 120 343 120 366.5 142.5 c 128,-1,9
 390 165 390 165 390 205 c 2,10,-1
 390 276 l 2,11,12
 390 360 390 360 299 360 c 0,13,14
 245 360 245 360 222 330 c 1,15,-1
 77 330 l 1,16,-1
 82 730 l 1,17,-1
 513 730 l 1,18,-1
 513 595 l 1,19,-1
 223 595 l 1,20,-1
 221 405 l 1,21,-1
 223 405 l 1,22,23
 232 440 232 440 265.5 459.5 c 128,-1,24
 299 479 299 479 352 479 c 0,25,26
 441 479 441 479 490.5 425.5 c 128,-1,27
 540 372 540 372 540 276 c 2,28,-1
 540 205 l 2,29,30
 540 105 540 105 476 47.5 c 128,-1,31
 412 -10 412 -10 299 -10 c 0,0,1
EndSplineSet
EndChar

StartChar: six
Encoding: 54 54 74
Width: 600
Flags: W
LayerCount: 2
Fore
SplineSet
300 -10 m 0,0,1
 224 -10 224 -10 166.5 21.5 c 128,-1,2
 109 53 109 53 77 110 c 128,-1,3
 45 167 45 167 45 242 c 0,4,5
 45 332 45 332 116 456 c 2,6,-1
 274 730 l 1,7,-1
 437 730 l 1,8,-1
 233 382 l 1,9,-1
 240 378 l 1,10,11
 262 410 262 410 291.5 428 c 128,-1,12
 321 446 321 446 364 446 c 0,13,14
 421 446 421 446 464 418.5 c 128,-1,15
 507 391 507 391 531 341.5 c 128,-1,16
 555 292 555 292 555 226 c 0,17,18
 555 156 555 156 523 102.5 c 128,-1,19
 491 49 491 49 434 19.5 c 128,-1,20
 377 -10 377 -10 300 -10 c 0,0,1
300 115 m 256,21,22
 349 115 349 115 379 145.5 c 128,-1,23
 409 176 409 176 409 224 c 0,24,25
 409 273 409 273 379 304 c 128,-1,26
 349 335 349 335 300 335 c 256,27,28
 251 335 251 335 221 304 c 128,-1,29
 191 273 191 273 191 224 c 0,30,31
 191 176 191 176 221 145.5 c 128,-1,32
 251 115 251 115 300 115 c 256,21,22
EndSplineSet
EndChar

StartChar: seven
Encoding: 55 55 75
Width: 600
Flags: W
LayerCount: 2
Fore
SplineSet
129 0 m 1,0,-1
 399 590 l 1,1,-1
 190 590 l 1,2,-1
 190 480 l 1,3,-1
 40 480 l 1,4,-1
 40 730 l 1,5,-1
 555 730 l 1,6,-1
 555 591 l 1,7,-1
 289 0 l 1,8,-1
 129 0 l 1,0,-1
EndSplineSet
EndChar

StartChar: eight
Encoding: 56 56 76
Width: 600
Flags: W
LayerCount: 2
Fore
SplineSet
300 -10 m 256,0,1
 224 -10 224 -10 167 15.5 c 128,-1,2
 110 41 110 41 78 86.5 c 128,-1,3
 46 132 46 132 46 192 c 0,4,5
 46 254 46 254 81.5 299 c 128,-1,6
 117 344 117 344 177 374 c 1,7,8
 124 401 124 401 92.5 443.5 c 128,-1,9
 61 486 61 486 61 544 c 0,10,11
 61 599 61 599 90.5 643.5 c 128,-1,12
 120 688 120 688 173.5 714 c 128,-1,13
 227 740 227 740 300 740 c 256,14,15
 373 740 373 740 426 714 c 128,-1,16
 479 688 479 688 508 643.5 c 128,-1,17
 537 599 537 599 537 544 c 0,18,19
 537 484 537 484 506 442 c 128,-1,20
 475 400 475 400 423 374 c 1,21,22
 554 307 554 307 554 192 c 0,23,24
 554 130 554 130 522 84.5 c 128,-1,25
 490 39 490 39 433 14.5 c 128,-1,26
 376 -10 376 -10 300 -10 c 256,0,1
279 438 m 2,27,-1
 301 428 l 1,28,-1
 321 437 l 2,29,30
 352 451 352 451 371.5 476.5 c 128,-1,31
 391 502 391 502 391 534 c 0,32,33
 391 570 391 570 366 593 c 128,-1,34
 341 616 341 616 300 616 c 256,35,36
 259 616 259 616 233 593 c 128,-1,37
 207 570 207 570 207 534 c 0,38,39
 207 503 207 503 227.5 477.5 c 128,-1,40
 248 452 248 452 279 438 c 2,27,-1
300 114 m 256,41,42
 345 114 345 114 376.5 140 c 128,-1,43
 408 166 408 166 408 204 c 0,44,45
 408 234 408 234 384 263 c 128,-1,46
 360 292 360 292 328 306 c 2,47,-1
 300 319 l 1,48,-1
 272 306 l 2,49,50
 240 292 240 292 216 263.5 c 128,-1,51
 192 235 192 235 192 205 c 0,52,53
 192 166 192 166 223.5 140 c 128,-1,54
 255 114 255 114 300 114 c 256,41,42
EndSplineSet
EndChar

StartChar: nine
Encoding: 57 57 77
Width: 600
Flags: W
LayerCount: 2
Fore
SplineSet
168 0 m 1,0,-1
 370 342 l 1,1,-1
 363 346 l 1,2,3
 341 314 341 314 310 296 c 128,-1,4
 279 278 279 278 236 278 c 0,5,6
 180 278 180 278 137 306.5 c 128,-1,7
 94 335 94 335 69.5 385.5 c 128,-1,8
 45 436 45 436 45 501 c 0,9,10
 45 571 45 571 77.5 625 c 128,-1,11
 110 679 110 679 168 709.5 c 128,-1,12
 226 740 226 740 300 740 c 0,13,14
 375 740 375 740 432.5 708 c 128,-1,15
 490 676 490 676 522.5 620.5 c 128,-1,16
 555 565 555 565 555 492 c 0,17,18
 555 446 555 446 537 392 c 128,-1,19
 519 338 519 338 484 275 c 2,20,-1
 334 0 l 1,21,-1
 168 0 l 1,0,-1
300 389 m 256,22,23
 348 389 348 389 378.5 421 c 128,-1,24
 409 453 409 453 409 503 c 0,25,26
 409 552 409 552 378.5 583.5 c 128,-1,27
 348 615 348 615 300 615 c 256,28,29
 252 615 252 615 221.5 583.5 c 128,-1,30
 191 552 191 552 191 503 c 0,31,32
 191 453 191 453 221.5 421 c 128,-1,33
 252 389 252 389 300 389 c 256,22,23
EndSplineSet
EndChar

StartChar: period
Encoding: 46 46 78
Width: 600
Flags: W
LayerCount: 2
Fore
SplineSet
300 -10 m 0,0,1
 254 -10 254 -10 226.5 17.5 c 128,-1,2
 199 45 199 45 199 91 c 0,3,4
 199 138 199 138 226.5 165 c 128,-1,5
 254 192 254 192 300 192 c 0,6,7
 347 192 347 192 374 165 c 128,-1,8
 401 138 401 138 401 91 c 0,9,10
 401 45 401 45 374 17.5 c 128,-1,11
 347 -10 347 -10 300 -10 c 0,0,1
EndSplineSet
EndChar

StartChar: comma
Encoding: 44 44 79
Width: 600
Flags: W
LayerCount: 2
Fore
SplineSet
140 -160 m 1,0,-1
 220 151 l 1,1,-1
 400 151 l 1,2,-1
 270 -160 l 1,3,-1
 140 -160 l 1,0,-1
EndSplineSet
EndChar

StartChar: colon
Encoding: 58 58 80
Width: 600
Flags: W
LayerCount: 2
Fore
SplineSet
300 380 m 256,0,1
 255 380 255 380 227.5 405 c 128,-1,2
 200 430 200 430 200 470 c 0,3,4
 200 511 200 511 227.5 535.5 c 128,-1,5
 255 560 255 560 300 560 c 256,6,7
 345 560 345 560 372.5 535.5 c 128,-1,8
 400 511 400 511 400 470 c 0,9,10
 400 430 400 430 372.5 405 c 128,-1,11
 345 380 345 380 300 380 c 256,0,1
300 -10 m 256,12,13
 255 -10 255 -10 227.5 15 c 128,-1,14
 200 40 200 40 200 80 c 0,15,16
 200 121 200 121 227.5 145.5 c 128,-1,17
 255 170 255 170 300 170 c 256,18,19
 345 170 345 170 372.5 145.5 c 128,-1,20
 400 121 400 121 400 80 c 0,21,22
 400 40 400 40 372.5 15 c 128,-1,23
 345 -10 345 -10 300 -10 c 256,12,13
EndSplineSet
EndChar

StartChar: semicolon
Encoding: 59 59 81
Width: 600
Flags: W
LayerCount: 2
Fore
SplineSet
290 380 m 2,0,1
 251 380 251 380 225.5 405.5 c 128,-1,2
 200 431 200 431 200 470 c 256,3,4
 200 509 200 509 225.5 534.5 c 128,-1,5
 251 560 251 560 290 560 c 2,6,-1
 310 560 l 2,7,8
 349 560 349 560 374.5 534.5 c 128,-1,9
 400 509 400 509 400 470 c 256,10,11
 400 431 400 431 374.5 405.5 c 128,-1,12
 349 380 349 380 310 380 c 2,13,-1
 290 380 l 2,0,1
145 -160 m 1,14,-1
 225 151 l 1,15,-1
 405 151 l 1,16,-1
 275 -160 l 1,17,-1
 145 -160 l 1,14,-1
EndSplineSet
EndChar

StartChar: exclam
Encoding: 33 33 82
Width: 600
Flags: W
LayerCount: 2
Fore
SplineSet
244 245 m 1,0,-1
 221 580 l 1,1,-1
 221 730 l 1,2,-1
 379 730 l 1,3,-1
 379 580 l 1,4,-1
 356 245 l 1,5,-1
 244 245 l 1,0,-1
285 -5 m 2,6,7
 251 -5 251 -5 230.5 14.5 c 128,-1,8
 210 34 210 34 210 65 c 0,9,10
 210 97 210 97 230.5 116 c 128,-1,11
 251 135 251 135 285 135 c 2,12,-1
 315 135 l 2,13,14
 349 135 349 135 369.5 116 c 128,-1,15
 390 97 390 97 390 65 c 256,16,17
 390 33 390 33 369.5 14 c 128,-1,18
 349 -5 349 -5 314 -5 c 2,19,-1
 285 -5 l 2,6,7
EndSplineSet
EndChar

StartChar: exclamdown
Encoding: 161 161 83
Width: 600
Flags: W
LayerCount: 2
Fore
SplineSet
285 415 m 2,0,1
 251 415 251 415 230.5 434.5 c 128,-1,2
 210 454 210 454 210 486 c 256,3,4
 210 518 210 518 231 536.5 c 128,-1,5
 252 555 252 555 286 555 c 2,6,-1
 315 555 l 2,7,8
 349 555 349 555 369.5 536 c 128,-1,9
 390 517 390 517 390 485 c 0,10,11
 390 454 390 454 369.5 434.5 c 128,-1,12
 349 415 349 415 315 415 c 2,13,-1
 285 415 l 2,0,1
221 -180 m 1,14,-1
 221 -20 l 1,15,-1
 244 305 l 1,16,-1
 356 305 l 1,17,-1
 379 -20 l 1,18,-1
 379 -180 l 1,19,-1
 221 -180 l 1,14,-1
EndSplineSet
EndChar

StartChar: question
Encoding: 63 63 84
Width: 600
Flags: W
LayerCount: 2
Fore
SplineSet
181 225 m 1,0,-1
 176 440 l 1,1,-1
 276 440 l 2,2,3
 317 440 317 440 341 460.5 c 128,-1,4
 365 481 365 481 365 515 c 0,5,6
 365 550 365 550 340.5 570 c 128,-1,7
 316 590 316 590 275 590 c 2,8,-1
 110 590 l 1,9,-1
 110 730 l 1,10,-1
 265 730 l 2,11,12
 342 730 342 730 398 703.5 c 128,-1,13
 454 677 454 677 484.5 629 c 128,-1,14
 515 581 515 581 515 515 c 0,15,16
 515 452 515 452 489 405 c 128,-1,17
 463 358 463 358 416 331.5 c 128,-1,18
 369 305 369 305 306 305 c 1,19,-1
 306 225 l 1,20,-1
 181 225 l 1,0,-1
229 -5 m 2,21,22
 195 -5 195 -5 174.5 14.5 c 128,-1,23
 154 34 154 34 154 65 c 0,24,25
 154 97 154 97 174.5 116 c 128,-1,26
 195 135 195 135 229 135 c 2,27,-1
 259 135 l 2,28,29
 293 135 293 135 313.5 116 c 128,-1,30
 334 97 334 97 334 65 c 256,31,32
 334 33 334 33 313.5 14 c 128,-1,33
 293 -5 293 -5 258 -5 c 2,34,-1
 229 -5 l 2,21,22
EndSplineSet
EndChar

StartChar: questiondown
Encoding: 191 191 85
Width: 600
Flags: W
LayerCount: 2
Fore
SplineSet
341 415 m 2,0,1
 307 415 307 415 286.5 434.5 c 128,-1,2
 266 454 266 454 266 486 c 256,3,4
 266 518 266 518 287 536.5 c 128,-1,5
 308 555 308 555 342 555 c 2,6,-1
 371 555 l 2,7,8
 405 555 405 555 425.5 536 c 128,-1,9
 446 517 446 517 446 485 c 0,10,11
 446 454 446 454 425.5 434.5 c 128,-1,12
 405 415 405 415 371 415 c 2,13,-1
 341 415 l 2,0,1
330 -170 m 2,14,15
 255 -170 255 -170 199 -143.5 c 128,-1,16
 143 -117 143 -117 111.5 -70 c 128,-1,17
 80 -23 80 -23 80 40 c 0,18,19
 80 102 80 102 106 148 c 128,-1,20
 132 194 132 194 179.5 219.5 c 128,-1,21
 227 245 227 245 289 245 c 1,22,-1
 289 325 l 1,23,-1
 414 325 l 1,24,-1
 419 110 l 1,25,-1
 319 110 l 2,26,27
 278 110 278 110 254 91.5 c 128,-1,28
 230 73 230 73 230 40 c 256,29,30
 230 7 230 7 254 -11.5 c 128,-1,31
 278 -30 278 -30 320 -30 c 2,32,-1
 485 -30 l 1,33,-1
 485 -170 l 1,34,-1
 330 -170 l 2,14,15
EndSplineSet
EndChar

StartChar: bullet
Encoding: 149 8226 86
Width: 600
Flags: W
LayerCount: 2
Fore
SplineSet
300 230 m 256,0,1
 240 230 240 230 202.5 267.5 c 128,-1,2
 165 305 165 305 165 365 c 256,3,4
 165 425 165 425 202.5 462.5 c 128,-1,5
 240 500 240 500 300 500 c 256,6,7
 360 500 360 500 397.5 462.5 c 128,-1,8
 435 425 435 425 435 365 c 256,9,10
 435 305 435 305 397.5 267.5 c 128,-1,11
 360 230 360 230 300 230 c 256,0,1
EndSplineSet
EndChar

StartChar: asterisk
Encoding: 42 42 87
Width: 600
Flags: W
LayerCount: 2
Fore
SplineSet
197 82 m 1,0,-1
 91 156 l 1,1,-1
 122 201 l 2,2,3
 139 225 139 225 164 248 c 128,-1,4
 189 271 189 271 214.5 290.5 c 128,-1,5
 240 310 240 310 258 322 c 1,6,-1
 256 326 l 1,7,8
 234 326 234 326 202 327.5 c 128,-1,9
 170 329 170 329 137 334 c 128,-1,10
 104 339 104 339 78 348 c 2,11,-1
 27 367 l 1,12,-1
 71 489 l 1,13,-1
 123 470 l 2,14,15
 149 461 149 461 177 443 c 128,-1,16
 205 425 205 425 230.5 405.5 c 128,-1,17
 256 386 256 386 273 371 c 1,18,-1
 278 375 l 1,19,20
 271 396 271 396 260.5 427 c 128,-1,21
 250 458 250 458 242.5 492 c 128,-1,22
 235 526 235 526 235 555 c 2,23,-1
 235 610 l 1,24,-1
 365 610 l 1,25,-1
 365 555 l 2,26,27
 365 526 365 526 357.5 492 c 128,-1,28
 350 458 350 458 340 427 c 128,-1,29
 330 396 330 396 322 375 c 1,30,-1
 326 372 l 1,31,32
 343 387 343 387 368.5 406 c 128,-1,33
 394 425 394 425 422 443 c 128,-1,34
 450 461 450 461 476 470 c 2,35,-1
 528 489 l 1,36,-1
 573 367 l 1,37,-1
 521 348 l 2,38,39
 495 339 495 339 462.5 334 c 128,-1,40
 430 329 430 329 398.5 327.5 c 128,-1,41
 367 326 367 326 344 326 c 1,42,-1
 342 322 l 1,43,44
 360 310 360 310 385.5 290.5 c 128,-1,45
 411 271 411 271 436.5 248 c 128,-1,46
 462 225 462 225 478 202 c 2,47,-1
 509 156 l 1,48,-1
 403 82 l 1,49,-1
 371 127 l 2,50,51
 355 151 355 151 341.5 183 c 128,-1,52
 328 215 328 215 318.5 246.5 c 128,-1,53
 309 278 309 278 303 299 c 1,54,-1
 297 299 l 1,55,56
 292 278 292 278 282 246.5 c 128,-1,57
 272 215 272 215 259 183 c 128,-1,58
 246 151 246 151 229 127 c 2,59,-1
 197 82 l 1,0,-1
EndSplineSet
EndChar

StartChar: numbersign
Encoding: 35 35 88
Width: 600
Flags: W
LayerCount: 2
Fore
SplineSet
70 0 m 1,0,-1
 99 170 l 1,1,-1
 20 170 l 1,2,-1
 20 270 l 1,3,-1
 116 270 l 1,4,-1
 149 460 l 1,5,-1
 50 460 l 1,6,-1
 50 560 l 1,7,-1
 166 560 l 1,8,-1
 195 730 l 1,9,-1
 300 730 l 1,10,-1
 271 560 l 1,11,-1
 396 560 l 1,12,-1
 425 730 l 1,13,-1
 530 730 l 1,14,-1
 501 560 l 1,15,-1
 580 560 l 1,16,-1
 580 460 l 1,17,-1
 484 460 l 1,18,-1
 451 270 l 1,19,-1
 550 270 l 1,20,-1
 550 170 l 1,21,-1
 434 170 l 1,22,-1
 405 0 l 1,23,-1
 300 0 l 1,24,-1
 329 170 l 1,25,-1
 204 170 l 1,26,-1
 175 0 l 1,27,-1
 70 0 l 1,0,-1
221 270 m 1,28,-1
 346 270 l 1,29,-1
 379 460 l 1,30,-1
 254 460 l 1,31,-1
 221 270 l 1,28,-1
EndSplineSet
EndChar

StartChar: slash
Encoding: 47 47 89
Width: 600
Flags: W
LayerCount: 2
Fore
SplineSet
50 -110 m 1,0,-1
 395 830 l 1,1,-1
 550 830 l 1,2,-1
 205 -110 l 1,3,-1
 50 -110 l 1,0,-1
EndSplineSet
EndChar

StartChar: backslash
Encoding: 92 92 90
Width: 600
Flags: W
LayerCount: 2
Fore
SplineSet
394 -110 m 1,0,-1
 49 830 l 1,1,-1
 204 830 l 1,2,-1
 549 -110 l 1,3,-1
 394 -110 l 1,0,-1
EndSplineSet
EndChar

StartChar: parenleft
Encoding: 40 40 91
Width: 600
Flags: W
LayerCount: 2
Fore
SplineSet
485 -120 m 1,0,1
 326 -77 326 -77 240.5 23.5 c 128,-1,2
 155 124 155 124 155 269 c 2,3,-1
 155 450 l 2,4,5
 155 545 155 545 194.5 623 c 128,-1,6
 234 701 234 701 308 756.5 c 128,-1,7
 382 812 382 812 485 840 c 1,8,-1
 485 690 l 1,9,10
 400 669 400 669 352.5 605.5 c 128,-1,11
 305 542 305 542 305 450 c 2,12,-1
 305 269 l 2,13,14
 305 179 305 179 353 115.5 c 128,-1,15
 401 52 401 52 485 32 c 1,16,-1
 485 -120 l 1,0,1
EndSplineSet
EndChar

StartChar: parenright
Encoding: 41 41 92
Width: 600
Flags: W
LayerCount: 2
Fore
SplineSet
115 -120 m 1,0,-1
 115 32 l 1,1,2
 199 52 199 52 247 115.5 c 128,-1,3
 295 179 295 179 295 269 c 2,4,-1
 295 450 l 2,5,6
 295 542 295 542 247.5 605.5 c 128,-1,7
 200 669 200 669 115 690 c 1,8,-1
 115 840 l 1,9,10
 219 812 219 812 292.5 756.5 c 128,-1,11
 366 701 366 701 405.5 623 c 128,-1,12
 445 545 445 545 445 450 c 2,13,-1
 445 269 l 2,14,15
 445 124 445 124 359.5 23.5 c 128,-1,16
 274 -77 274 -77 115 -120 c 1,0,-1
EndSplineSet
EndChar

StartChar: braceleft
Encoding: 123 123 93
Width: 600
Flags: W
LayerCount: 2
Fore
SplineSet
440 -111 m 2,0,1
 386 -111 386 -111 343.5 -88 c 128,-1,2
 301 -65 301 -65 278.5 -23.5 c 128,-1,3
 256 18 256 18 260 74 c 2,4,-1
 270 219 l 2,5,6
 272 251 272 251 252 270 c 128,-1,7
 232 289 232 289 200 289 c 2,8,-1
 75 289 l 1,9,-1
 75 429 l 1,10,-1
 200 429 l 2,11,12
 232 429 232 429 252 448.5 c 128,-1,13
 272 468 272 468 270 499 c 2,14,-1
 260 650 l 2,15,16
 257 705 257 705 279 745.5 c 128,-1,17
 301 786 301 786 343 808 c 128,-1,18
 385 830 385 830 440 830 c 2,19,-1
 525 830 l 1,20,-1
 525 690 l 1,21,-1
 470 690 l 2,22,23
 442 690 442 690 425 676 c 128,-1,24
 408 662 408 662 410 630 c 2,25,-1
 420 479 l 2,26,27
 423 433 423 433 392.5 401.5 c 128,-1,28
 362 370 362 370 308 360 c 1,29,30
 362 351 362 351 392.5 319 c 128,-1,31
 423 287 423 287 420 239 c 2,32,-1
 410 89 l 2,33,34
 409 62 409 62 426 45.5 c 128,-1,35
 443 29 443 29 470 29 c 2,36,-1
 525 29 l 1,37,-1
 525 -111 l 1,38,-1
 440 -111 l 2,0,1
EndSplineSet
EndChar

StartChar: braceright
Encoding: 125 125 94
Width: 600
Flags: W
LayerCount: 2
Fore
SplineSet
75 -111 m 1,0,-1
 75 29 l 1,1,-1
 130 29 l 2,2,3
 157 29 157 29 174.5 45.5 c 128,-1,4
 192 62 192 62 190 89 c 2,5,-1
 180 239 l 2,6,7
 177 287 177 287 207.5 319 c 128,-1,8
 238 351 238 351 292 360 c 1,9,10
 238 370 238 370 207.5 401.5 c 128,-1,11
 177 433 177 433 180 479 c 2,12,-1
 190 630 l 2,13,14
 192 662 192 662 175.5 676 c 128,-1,15
 159 690 159 690 130 690 c 2,16,-1
 75 690 l 1,17,-1
 75 830 l 1,18,-1
 160 830 l 2,19,20
 215 830 215 830 257 808 c 128,-1,21
 299 786 299 786 321.5 745.5 c 128,-1,22
 344 705 344 705 340 650 c 2,23,-1
 330 499 l 2,24,25
 328 468 328 468 348.5 448.5 c 128,-1,26
 369 429 369 429 400 429 c 2,27,-1
 525 429 l 1,28,-1
 525 289 l 1,29,-1
 400 289 l 2,30,31
 369 289 369 289 348.5 270 c 128,-1,32
 328 251 328 251 330 219 c 2,33,-1
 340 74 l 2,34,35
 344 18 344 18 321.5 -23.5 c 128,-1,36
 299 -65 299 -65 257 -88 c 128,-1,37
 215 -111 215 -111 160 -111 c 2,38,-1
 75 -111 l 1,0,-1
EndSplineSet
EndChar

StartChar: bracketleft
Encoding: 91 91 95
Width: 600
Flags: W
LayerCount: 2
Fore
SplineSet
170 -110 m 1,0,-1
 170 830 l 1,1,-1
 475 830 l 1,2,-1
 475 690 l 1,3,-1
 320 690 l 1,4,-1
 320 30 l 1,5,-1
 475 30 l 1,6,-1
 475 -110 l 1,7,-1
 170 -110 l 1,0,-1
EndSplineSet
EndChar

StartChar: bracketright
Encoding: 93 93 96
Width: 600
Flags: W
LayerCount: 2
Fore
SplineSet
125 -110 m 1,0,-1
 125 30 l 1,1,-1
 280 30 l 1,2,-1
 280 690 l 1,3,-1
 125 690 l 1,4,-1
 125 830 l 1,5,-1
 430 830 l 1,6,-1
 430 -110 l 1,7,-1
 125 -110 l 1,0,-1
EndSplineSet
EndChar

StartChar: hyphen
Encoding: 45 45 97
Width: 600
Flags: W
LayerCount: 2
Fore
SplineSet
140 260 m 1,0,-1
 140 400 l 1,1,-1
 460 400 l 1,2,-1
 460 260 l 1,3,-1
 140 260 l 1,0,-1
EndSplineSet
EndChar

StartChar: emdash
Encoding: 151 8212 98
Width: 600
Flags: W
LayerCount: 2
Fore
SplineSet
0 260 m 1,0,-1
 0 400 l 1,1,-1
 600 400 l 1,2,-1
 600 260 l 1,3,-1
 0 260 l 1,0,-1
EndSplineSet
EndChar

StartChar: underscore
Encoding: 95 95 99
Width: 600
Flags: W
LayerCount: 2
Fore
SplineSet
60 -165 m 1,0,-1
 60 -25 l 1,1,-1
 540 -25 l 1,2,-1
 540 -165 l 1,3,-1
 60 -165 l 1,0,-1
EndSplineSet
EndChar

StartChar: quotedblleft
Encoding: 147 8220 100
Width: 600
Flags: W
LayerCount: 2
Fore
SplineSet
305 465 m 1,0,-1
 225 776 l 1,1,-1
 45 776 l 1,2,-1
 175 465 l 1,3,-1
 305 465 l 1,0,-1
565 465 m 1,4,-1
 485 776 l 1,5,-1
 305 776 l 1,6,-1
 435 465 l 1,7,-1
 565 465 l 1,4,-1
EndSplineSet
EndChar

StartChar: quotedblright
Encoding: 148 8221 101
Width: 600
Flags: W
LayerCount: 2
Fore
SplineSet
305 465 m 1,0,-1
 385 776 l 1,1,-1
 565 776 l 1,2,-1
 435 465 l 1,3,-1
 305 465 l 1,0,-1
45 465 m 1,4,-1
 125 776 l 1,5,-1
 305 776 l 1,6,-1
 175 465 l 1,7,-1
 45 465 l 1,4,-1
EndSplineSet
EndChar

StartChar: quotedbl
Encoding: 34 34 104
Width: 600
Flags: W
LayerCount: 2
Fore
SplineSet
356 430 m 1,0,-1
 342 570 l 1,1,-1
 342 730 l 1,2,-1
 490 730 l 1,3,-1
 490 570 l 1,4,-1
 477 430 l 1,5,-1
 356 430 l 1,0,-1
124 430 m 1,6,-1
 110 570 l 1,7,-1
 110 730 l 1,8,-1
 258 730 l 1,9,-1
 258 570 l 1,10,-1
 245 430 l 1,11,-1
 124 430 l 1,6,-1
EndSplineSet
EndChar

StartChar: quotesingle
Encoding: 39 39 105
Width: 600
Flags: W
LayerCount: 2
Fore
SplineSet
240 430 m 1,0,-1
 226 570 l 1,1,-1
 226 730 l 1,2,-1
 374 730 l 1,3,-1
 374 570 l 1,4,-1
 361 430 l 1,5,-1
 240 430 l 1,0,-1
EndSplineSet
EndChar

StartChar: dollar
Encoding: 36 36 109
Width: 600
Flags: W
LayerCount: 2
Fore
SplineSet
264 -140 m 1,0,-1
 264 -8 l 1,1,2
 164 0 164 0 105.5 56 c 128,-1,3
 47 112 47 112 47 200 c 1,4,-1
 197 200 l 1,5,6
 197 172 197 172 215 152 c 128,-1,7
 233 132 233 132 264 124 c 1,8,-1
 264 299 l 1,9,-1
 253 302 l 2,10,11
 160 324 160 324 108.5 383.5 c 128,-1,12
 57 443 57 443 57 529 c 0,13,14
 57 618 57 618 112.5 674 c 128,-1,15
 168 730 168 730 264 738 c 1,16,-1
 264 870 l 1,17,-1
 329 870 l 1,18,-1
 329 739 l 1,19,20
 427 731 427 731 484 676.5 c 128,-1,21
 541 622 541 622 541 535 c 1,22,-1
 391 535 l 1,23,24
 391 593 391 593 329 607 c 1,25,-1
 329 438 l 1,26,-1
 356 432 l 2,27,28
 453 410 453 410 503 352.5 c 128,-1,29
 553 295 553 295 553 206 c 0,30,31
 553 115 553 115 492.5 57 c 128,-1,32
 432 -1 432 -1 329 -9 c 1,33,-1
 329 -140 l 1,34,-1
 264 -140 l 1,0,-1
207 535 m 0,35,36
 207 475 207 475 264 454 c 1,37,-1
 264 607 l 1,38,39
 207 593 207 593 207 535 c 0,35,36
329 122 m 1,40,41
 364 127 364 127 383.5 147 c 128,-1,42
 403 167 403 167 403 199 c 0,43,44
 403 230 403 230 383.5 253 c 128,-1,45
 364 276 364 276 329 285 c 1,46,-1
 329 122 l 1,40,41
EndSplineSet
EndChar

StartChar: plus
Encoding: 43 43 110
Width: 600
Flags: W
LayerCount: 2
Fore
SplineSet
225 90 m 1,0,-1
 225 260 l 1,1,-1
 55 260 l 1,2,-1
 55 400 l 1,3,-1
 225 400 l 1,4,-1
 225 570 l 1,5,-1
 375 570 l 1,6,-1
 375 400 l 1,7,-1
 545 400 l 1,8,-1
 545 260 l 1,9,-1
 375 260 l 1,10,-1
 375 90 l 1,11,-1
 225 90 l 1,0,-1
EndSplineSet
EndChar

StartChar: equal
Encoding: 61 61 111
Width: 600
Flags: W
LayerCount: 2
Fore
SplineSet
80 385 m 1,0,-1
 80 525 l 1,1,-1
 520 525 l 1,2,-1
 520 385 l 1,3,-1
 80 385 l 1,0,-1
80 135 m 1,4,-1
 80 275 l 1,5,-1
 520 275 l 1,6,-1
 520 135 l 1,7,-1
 80 135 l 1,4,-1
EndSplineSet
EndChar

StartChar: greater
Encoding: 62 62 112
Width: 600
Flags: W
LayerCount: 2
Fore
SplineSet
70 49 m 1,0,-1
 70 185 l 1,1,-1
 346 306 l 2,2,3
 366 315 366 315 388 321 c 128,-1,4
 410 327 410 327 423 329 c 1,5,6
 410 331 410 331 388 336.5 c 128,-1,7
 366 342 366 342 346 351 c 2,8,-1
 70 472 l 1,9,-1
 70 609 l 1,10,-1
 530 401 l 1,11,-1
 530 258 l 1,12,-1
 70 49 l 1,0,-1
EndSplineSet
EndChar

StartChar: less
Encoding: 60 60 113
Width: 600
Flags: W
LayerCount: 2
Fore
SplineSet
530 49 m 1,0,-1
 70 257 l 1,1,-1
 70 400 l 1,2,-1
 530 609 l 1,3,-1
 530 473 l 1,4,-1
 254 352 l 2,5,6
 234 343 234 343 212 337 c 128,-1,7
 190 331 190 331 177 329 c 1,8,9
 190 327 190 327 212 321.5 c 128,-1,10
 234 316 234 316 254 307 c 2,11,-1
 530 186 l 1,12,-1
 530 49 l 1,0,-1
EndSplineSet
EndChar

StartChar: asciitilde
Encoding: 126 126 114
Width: 600
Flags: W
LayerCount: 2
Fore
SplineSet
40 255 m 1,0,-1
 40 340 l 2,1,2
 40 404 40 404 82.5 442 c 128,-1,3
 125 480 125 480 195 480 c 0,4,5
 238 480 238 480 266.5 466 c 128,-1,6
 295 452 295 452 313.5 431 c 128,-1,7
 332 410 332 410 345.5 389 c 128,-1,8
 359 368 359 368 373.5 354 c 128,-1,9
 388 340 388 340 408 340 c 0,10,11
 440 340 440 340 440 375 c 2,12,-1
 440 450 l 1,13,-1
 560 450 l 1,14,-1
 560 365 l 2,15,16
 560 301 560 301 518 263 c 128,-1,17
 476 225 476 225 405 225 c 0,18,19
 362 225 362 225 333.5 239 c 128,-1,20
 305 253 305 253 286.5 274 c 128,-1,21
 268 295 268 295 254.5 316 c 128,-1,22
 241 337 241 337 226.5 351 c 128,-1,23
 212 365 212 365 192 365 c 0,24,25
 160 365 160 365 160 330 c 2,26,-1
 160 255 l 1,27,-1
 40 255 l 1,0,-1
EndSplineSet
EndChar

StartChar: asciicircum
Encoding: 94 94 115
Width: 600
Flags: W
LayerCount: 2
Fore
SplineSet
60 340 m 1,0,-1
 228 730 l 1,1,-1
 374 730 l 1,2,-1
 540 340 l 1,3,-1
 398 340 l 1,4,-1
 321 550 l 2,5,6
 313 573 313 573 308 592.5 c 128,-1,7
 303 612 303 612 301 622 c 1,8,9
 300 612 300 612 294.5 592.5 c 128,-1,10
 289 573 289 573 281 550 c 2,11,-1
 201 340 l 1,12,-1
 60 340 l 1,0,-1
EndSplineSet
EndChar

StartChar: infinity
Encoding: 733 8734 116
Width: 600
Flags: W
LayerCount: 2
Fore
SplineSet
156 160 m 0,0,1
 95 160 95 160 57.5 198.5 c 128,-1,2
 20 237 20 237 20 300 c 2,3,-1
 20 365 l 2,4,5
 20 426 20 426 62 465.5 c 128,-1,6
 104 505 104 505 172 505 c 0,7,8
 225 505 225 505 263.5 479 c 128,-1,9
 302 453 302 453 321 406 c 1,10,-1
 326 406 l 1,11,12
 329 428 329 428 342 450.5 c 128,-1,13
 355 473 355 473 380.5 489 c 128,-1,14
 406 505 406 505 444 505 c 0,15,16
 506 505 506 505 543 466.5 c 128,-1,17
 580 428 580 428 580 365 c 2,18,-1
 580 300 l 2,19,20
 580 239 580 239 538 199.5 c 128,-1,21
 496 160 496 160 428 160 c 0,22,23
 376 160 376 160 337 186 c 128,-1,24
 298 212 298 212 279 259 c 1,25,-1
 274 259 l 1,26,27
 272 238 272 238 258.5 215 c 128,-1,28
 245 192 245 192 220 176 c 128,-1,29
 195 160 195 160 156 160 c 0,0,1
175 245 m 0,30,31
 213 245 213 245 233.5 268.5 c 128,-1,32
 254 292 254 292 259 314 c 1,33,-1
 237 375 l 2,34,35
 218 420 218 420 175 420 c 0,36,37
 150 420 150 420 135 405 c 128,-1,38
 120 390 120 390 120 365 c 2,39,-1
 120 300 l 2,40,41
 120 275 120 275 135 260 c 128,-1,42
 150 245 150 245 175 245 c 0,30,31
425 245 m 0,43,44
 450 245 450 245 465 260 c 128,-1,45
 480 275 480 275 480 300 c 2,46,-1
 480 365 l 2,47,48
 480 390 480 390 465 405 c 128,-1,49
 450 420 450 420 425 420 c 0,50,51
 388 420 388 420 367 397 c 128,-1,52
 346 374 346 374 341 351 c 1,53,-1
 363 290 l 2,54,55
 371 268 371 268 388 256.5 c 128,-1,56
 405 245 405 245 425 245 c 0,43,44
EndSplineSet
EndChar

StartChar: percent
Encoding: 37 37 117
Width: 600
Flags: W
LayerCount: 2
Fore
SplineSet
160 400 m 256,0,1
 97 400 97 400 53.5 436 c 128,-1,2
 10 472 10 472 10 535 c 2,3,-1
 10 600 l 2,4,5
 10 663 10 663 53.5 699 c 128,-1,6
 97 735 97 735 160 735 c 256,7,8
 223 735 223 735 266.5 699 c 128,-1,9
 310 663 310 663 310 600 c 2,10,-1
 310 535 l 2,11,12
 310 472 310 472 266.5 436 c 128,-1,13
 223 400 223 400 160 400 c 256,0,1
-15 0 m 1,14,-1
 513 730 l 1,15,-1
 615 730 l 1,16,-1
 87 0 l 1,17,-1
 -15 0 l 1,14,-1
160 483 m 256,18,19
 211 483 211 483 211 535 c 2,20,-1
 211 600 l 2,21,22
 211 652 211 652 160 652 c 256,23,24
 109 652 109 652 109 600 c 2,25,-1
 109 535 l 2,26,27
 109 483 109 483 160 483 c 256,18,19
440 -5 m 256,28,29
 375 -5 375 -5 332.5 32 c 128,-1,30
 290 69 290 69 290 130 c 2,31,-1
 290 195 l 2,32,33
 290 256 290 256 332.5 293 c 128,-1,34
 375 330 375 330 440 330 c 256,35,36
 505 330 505 330 547.5 293 c 128,-1,37
 590 256 590 256 590 195 c 2,38,-1
 590 130 l 2,39,40
 590 69 590 69 547.5 32 c 128,-1,41
 505 -5 505 -5 440 -5 c 256,28,29
440 79 m 256,42,43
 491 79 491 79 491 130 c 2,44,-1
 491 195 l 2,45,46
 491 247 491 247 440 247 c 256,47,48
 389 247 389 247 389 195 c 2,49,-1
 389 130 l 2,50,51
 389 79 389 79 440 79 c 256,42,43
EndSplineSet
EndChar

StartChar: arrowright
Encoding: 766 8594 118
Width: 600
Flags: W
LayerCount: 2
Fore
SplineSet
233 35 m 1,0,-1
 395 240 l 2,1,2
 405 253 405 253 418 265.5 c 128,-1,3
 431 278 431 278 440 285 c 1,4,-1
 440 294 l 1,5,6
 427 293 427 293 407 291.5 c 128,-1,7
 387 290 387 290 370 290 c 2,8,-1
 40 290 l 1,9,-1
 40 370 l 1,10,-1
 370 370 l 2,11,12
 387 370 387 370 407 368.5 c 128,-1,13
 427 367 427 367 440 365 c 1,14,-1
 440 374 l 1,15,16
 433 380 433 380 420.5 393 c 128,-1,17
 408 406 408 406 395 421 c 2,18,-1
 233 625 l 1,19,-1
 338 625 l 1,20,-1
 570 330 l 1,21,-1
 339 35 l 1,22,-1
 233 35 l 1,0,-1
EndSplineSet
EndChar

StartChar: at
Encoding: 64 64 119
Width: 600
Flags: W
LayerCount: 2
Fore
SplineSet
325 -179 m 2,0,1
 232 -179 232 -179 165 -144 c 128,-1,2
 98 -109 98 -109 61.5 -44 c 128,-1,3
 25 21 25 21 25 111 c 2,4,-1
 25 450 l 2,5,6
 25 540 25 540 60 605 c 128,-1,7
 95 670 95 670 160 705 c 128,-1,8
 225 740 225 740 315 740 c 0,9,10
 398 740 398 740 457.5 709 c 128,-1,11
 517 678 517 678 548.5 623.5 c 128,-1,12
 580 569 580 569 580 500 c 2,13,-1
 580 65 l 1,14,-1
 469 65 l 1,15,-1
 479 120 l 1,16,-1
 455 120 l 1,17,18
 446 90 446 90 418 72.5 c 128,-1,19
 390 55 390 55 350 55 c 0,20,21
 289 55 289 55 254.5 98.5 c 128,-1,22
 220 142 220 142 220 220 c 2,23,-1
 220 330 l 2,24,25
 220 408 220 408 254.5 451.5 c 128,-1,26
 289 495 289 495 350 495 c 0,27,28
 393 495 393 495 422 474.5 c 128,-1,29
 451 454 451 454 458 420 c 1,30,-1
 480 420 l 1,31,-1
 460 487 l 1,32,-1
 460 500 l 2,33,34
 460 536 460 536 442.5 567 c 128,-1,35
 425 598 425 598 393 616.5 c 128,-1,36
 361 635 361 635 315 635 c 0,37,38
 234 635 234 635 189.5 587 c 128,-1,39
 145 539 145 539 145 450 c 2,40,-1
 145 111 l 2,41,42
 145 24 145 24 191.5 -22.5 c 128,-1,43
 238 -69 238 -69 325 -69 c 2,44,-1
 395 -69 l 1,45,-1
 395 -179 l 1,46,-1
 325 -179 l 2,0,1
400 140 m 0,47,48
 432 140 432 140 446 158 c 128,-1,49
 460 176 460 176 460 220 c 2,50,-1
 460 330 l 2,51,52
 460 368 460 368 444.5 389 c 128,-1,53
 429 410 429 410 400 410 c 256,54,55
 371 410 371 410 355.5 389 c 128,-1,56
 340 368 340 368 340 330 c 2,57,-1
 340 220 l 2,58,59
 340 177 340 177 355.5 158.5 c 128,-1,60
 371 140 371 140 400 140 c 0,47,48
EndSplineSet
EndChar

StartChar: ampersand
Encoding: 38 38 120
Width: 600
Flags: W
LayerCount: 2
Fore
SplineSet
235 -10 m 0,0,1
 139 -10 139 -10 86.5 44 c 128,-1,2
 34 98 34 98 34 195 c 2,3,-1
 34 265 l 2,4,5
 34 328 34 328 60 371.5 c 128,-1,6
 86 415 86 415 134 433 c 1,7,8
 116 466 116 466 105.5 499 c 128,-1,9
 95 532 95 532 95 565 c 0,10,11
 95 617 95 617 120 656 c 128,-1,12
 145 695 145 695 190 717.5 c 128,-1,13
 235 740 235 740 295 740 c 0,14,15
 357 740 357 740 403 716 c 128,-1,16
 449 692 449 692 474.5 649.5 c 128,-1,17
 500 607 500 607 500 550 c 1,18,-1
 365 550 l 1,19,20
 365 582 365 582 346 601 c 128,-1,21
 327 620 327 620 295 620 c 0,22,23
 264 620 264 620 244.5 601 c 128,-1,24
 225 582 225 582 225 550 c 0,25,26
 225 526 225 526 239 497.5 c 128,-1,27
 253 469 253 469 276 436 c 2,28,-1
 391 271 l 1,29,-1
 434 360 l 1,30,-1
 574 360 l 1,31,-1
 472 155 l 1,32,-1
 580 0 l 1,33,-1
 437 0 l 1,34,-1
 401 51 l 1,35,36
 334 -10 334 -10 235 -10 c 0,0,1
249 110 m 0,37,38
 298 110 298 110 330 151 c 1,39,-1
 200 335 l 1,40,41
 174 314 174 314 174 265 c 2,42,-1
 174 195 l 2,43,44
 174 154 174 154 194.5 132 c 128,-1,45
 215 110 215 110 249 110 c 0,37,38
EndSplineSet
EndChar

StartChar: copyright
Encoding: 169 169 121
Width: 600
Flags: W
LayerCount: 2
Fore
SplineSet
300 110 m 0,0,1
 224 110 224 110 166.5 140 c 128,-1,2
 109 170 109 170 77 224 c 128,-1,3
 45 278 45 278 45 350 c 2,4,-1
 45 500 l 2,5,6
 45 572 45 572 77 626 c 128,-1,7
 109 680 109 680 166.5 710 c 128,-1,8
 224 740 224 740 300 740 c 0,9,10
 377 740 377 740 434 710 c 128,-1,11
 491 680 491 680 523 626 c 128,-1,12
 555 572 555 572 555 500 c 2,13,-1
 555 350 l 2,14,15
 555 278 555 278 523 224 c 128,-1,16
 491 170 491 170 434 140 c 128,-1,17
 377 110 377 110 300 110 c 0,0,1
300 160 m 256,18,19
 360 160 360 160 405 183.5 c 128,-1,20
 450 207 450 207 475 250 c 128,-1,21
 500 293 500 293 500 350 c 2,22,-1
 500 500 l 2,23,24
 500 557 500 557 475 599.5 c 128,-1,25
 450 642 450 642 405 666 c 128,-1,26
 360 690 360 690 300 690 c 256,27,28
 240 690 240 690 195 666 c 128,-1,29
 150 642 150 642 125 599.5 c 128,-1,30
 100 557 100 557 100 500 c 2,31,-1
 100 350 l 2,32,33
 100 293 100 293 125 250 c 128,-1,34
 150 207 150 207 195 183.5 c 128,-1,35
 240 160 240 160 300 160 c 256,18,19
305 245 m 0,36,37
 244 245 244 245 207 279.5 c 128,-1,38
 170 314 170 314 170 370 c 2,39,-1
 170 480 l 2,40,41
 170 536 170 536 207 570.5 c 128,-1,42
 244 605 244 605 305 605 c 0,43,44
 365 605 365 605 402 570.5 c 128,-1,45
 439 536 439 536 439 480 c 1,46,-1
 354 480 l 1,47,48
 354 503 354 503 340.5 516.5 c 128,-1,49
 327 530 327 530 305 530 c 256,50,51
 283 530 283 530 269 516.5 c 128,-1,52
 255 503 255 503 255 480 c 2,53,-1
 255 370 l 2,54,55
 255 348 255 348 269 334 c 128,-1,56
 283 320 283 320 305 320 c 256,57,58
 327 320 327 320 340.5 334 c 128,-1,59
 354 348 354 348 354 370 c 1,60,-1
 439 370 l 1,61,62
 439 314 439 314 402 279.5 c 128,-1,63
 365 245 365 245 305 245 c 0,36,37
EndSplineSet
EndChar

StartChar: bar
Encoding: 124 124 122
Width: 600
Flags: W
LayerCount: 2
Fore
SplineSet
225 -110 m 1,0,-1
 225 830 l 1,1,-1
 375 830 l 1,2,-1
 375 -110 l 1,3,-1
 225 -110 l 1,0,-1
EndSplineSet
EndChar

StartChar: uni0308
Encoding: 1009 776 123
Width: 600
GlyphClass: 4
Flags: W
LayerCount: 2
Fore
SplineSet
-178 637 m 256,0,1
 -215 637 -215 637 -236.5 658 c 128,-1,2
 -258 679 -258 679 -258 715 c 256,3,4
 -258 751 -258 751 -236.5 772 c 128,-1,5
 -215 793 -215 793 -178 793 c 256,6,7
 -141 793 -141 793 -119.5 772 c 128,-1,8
 -98 751 -98 751 -98 715 c 256,9,10
 -98 679 -98 679 -119.5 658 c 128,-1,11
 -141 637 -141 637 -178 637 c 256,0,1
-422 637 m 256,12,13
 -459 637 -459 637 -480.5 658 c 128,-1,14
 -502 679 -502 679 -502 715 c 256,15,16
 -502 751 -502 751 -480.5 772 c 128,-1,17
 -459 793 -459 793 -422 793 c 256,18,19
 -385 793 -385 793 -363.5 772 c 128,-1,20
 -342 751 -342 751 -342 715 c 256,21,22
 -342 679 -342 679 -363.5 658 c 128,-1,23
 -385 637 -385 637 -422 637 c 256,12,13
EndSplineSet
EndChar

StartChar: uni0307
Encoding: 1010 775 124
Width: 600
GlyphClass: 4
Flags: W
LayerCount: 2
Fore
SplineSet
-300 637 m 256,0,1
 -341 637 -341 637 -365.5 658 c 128,-1,2
 -390 679 -390 679 -390 715 c 256,3,4
 -390 751 -390 751 -365.5 772 c 128,-1,5
 -341 793 -341 793 -300 793 c 256,6,7
 -259 793 -259 793 -234.5 772 c 128,-1,8
 -210 751 -210 751 -210 715 c 256,9,10
 -210 679 -210 679 -234.5 658 c 128,-1,11
 -259 637 -259 637 -300 637 c 256,0,1
EndSplineSet
EndChar

StartChar: gravecomb
Encoding: 1011 768 125
Width: 600
GlyphClass: 4
Flags: W
LayerCount: 2
Fore
SplineSet
-353 645 m 1,0,-1
 -470 785 l 1,1,-1
 -305 785 l 1,2,-1
 -200 645 l 1,3,-1
 -353 645 l 1,0,-1
EndSplineSet
EndChar

StartChar: acutecomb
Encoding: 1012 769 126
Width: 600
GlyphClass: 4
Flags: W
LayerCount: 2
Fore
SplineSet
-398 645 m 1,0,-1
 -293 785 l 1,1,-1
 -132 785 l 1,2,-1
 -249 645 l 1,3,-1
 -398 645 l 1,0,-1
EndSplineSet
EndChar

StartChar: tildecomb
Encoding: 1019 771 127
Width: 600
GlyphClass: 4
Flags: W
LayerCount: 2
Fore
SplineSet
-230 635 m 0,0,1
 -262 635 -262 635 -281.5 644 c 128,-1,2
 -301 653 -301 653 -314 665 c 128,-1,3
 -327 677 -327 677 -338.5 686 c 128,-1,4
 -350 695 -350 695 -365 695 c 0,5,6
 -378 695 -378 695 -386.5 686 c 128,-1,7
 -395 677 -395 677 -395 662 c 2,8,-1
 -395 640 l 1,9,-1
 -480 640 l 1,10,-1
 -480 675 l 2,11,12
 -480 727 -480 727 -449.5 761 c 128,-1,13
 -419 795 -419 795 -370 795 c 0,14,15
 -338 795 -338 795 -318.5 786 c 128,-1,16
 -299 777 -299 777 -286 765 c 128,-1,17
 -273 753 -273 753 -261.5 744 c 128,-1,18
 -250 735 -250 735 -235 735 c 0,19,20
 -205 735 -205 735 -205 763 c 2,21,-1
 -205 790 l 1,22,-1
 -120 790 l 1,23,-1
 -120 755 l 2,24,25
 -120 703 -120 703 -150 669 c 128,-1,26
 -180 635 -180 635 -230 635 c 0,0,1
EndSplineSet
EndChar

StartChar: uni0308.case
Encoding: 1040 -1 129
Width: 600
GlyphClass: 4
Flags: W
LayerCount: 2
Fore
SplineSet
-178 802 m 256,0,1
 -215 802 -215 802 -236.5 823 c 128,-1,2
 -258 844 -258 844 -258 880 c 256,3,4
 -258 916 -258 916 -236.5 937 c 128,-1,5
 -215 958 -215 958 -178 958 c 256,6,7
 -141 958 -141 958 -119.5 937 c 128,-1,8
 -98 916 -98 916 -98 880 c 256,9,10
 -98 844 -98 844 -119.5 823 c 128,-1,11
 -141 802 -141 802 -178 802 c 256,0,1
-422 802 m 256,12,13
 -459 802 -459 802 -480.5 823 c 128,-1,14
 -502 844 -502 844 -502 880 c 256,15,16
 -502 916 -502 916 -480.5 937 c 128,-1,17
 -459 958 -459 958 -422 958 c 256,18,19
 -385 958 -385 958 -363.5 937 c 128,-1,20
 -342 916 -342 916 -342 880 c 256,21,22
 -342 844 -342 844 -363.5 823 c 128,-1,23
 -385 802 -385 802 -422 802 c 256,12,13
EndSplineSet
EndChar

StartChar: acutecomb.case
Encoding: 1043 -1 130
Width: 600
GlyphClass: 4
Flags: W
LayerCount: 2
Fore
SplineSet
-398 810 m 1,0,-1
 -293 950 l 1,1,-1
 -132 950 l 1,2,-1
 -249 810 l 1,3,-1
 -398 810 l 1,0,-1
EndSplineSet
EndChar

StartChar: tildecomb.case
Encoding: 1049 -1 131
Width: 600
GlyphClass: 4
Flags: W
LayerCount: 2
Fore
SplineSet
-230 800 m 0,0,1
 -262 800 -262 800 -281.5 809 c 128,-1,2
 -301 818 -301 818 -314 830 c 128,-1,3
 -327 842 -327 842 -338.5 851 c 128,-1,4
 -350 860 -350 860 -365 860 c 0,5,6
 -378 860 -378 860 -386.5 851 c 128,-1,7
 -395 842 -395 842 -395 827 c 2,8,-1
 -395 805 l 1,9,-1
 -480 805 l 1,10,-1
 -480 840 l 2,11,12
 -480 892 -480 892 -449.5 926 c 128,-1,13
 -419 960 -419 960 -370 960 c 0,14,15
 -338 960 -338 960 -318.5 951 c 128,-1,16
 -299 942 -299 942 -286 930 c 128,-1,17
 -273 918 -273 918 -261.5 909 c 128,-1,18
 -250 900 -250 900 -235 900 c 0,19,20
 -205 900 -205 900 -205 928 c 2,21,-1
 -205 955 l 1,22,-1
 -120 955 l 1,23,-1
 -120 920 l 2,24,25
 -120 868 -120 868 -150 834 c 128,-1,26
 -180 800 -180 800 -230 800 c 0,0,1
EndSplineSet
EndChar
